%TF.GenerationSoftware,KiCad,Pcbnew,9.0.4*%
%TF.CreationDate,2026-03-23T19:45:55+09:00*%
%TF.ProjectId,PortaRe0,506f7274-6152-4653-902e-6b696361645f,rev?*%
%TF.SameCoordinates,Original*%
%TF.FileFunction,Profile,NP*%
%FSLAX46Y46*%
G04 Gerber Fmt 4.6, Leading zero omitted, Abs format (unit mm)*
G04 Created by KiCad (PCBNEW 9.0.4) date 2026-03-23 19:45:55*
%MOMM*%
%LPD*%
G01*
G04 APERTURE LIST*
%TA.AperFunction,Profile*%
%ADD10C,0.050000*%
%TD*%
G04 APERTURE END LIST*
D10*
X189050000Y-54450000D02*
G75*
G02*
X184050000Y-54450000I-2500000J0D01*
G01*
X184050000Y-54450000D02*
G75*
G02*
X189050000Y-54450000I2500000J0D01*
G01*
X69050000Y-54450000D02*
G75*
G02*
X64050000Y-54450000I-2500000J0D01*
G01*
X64050000Y-54450000D02*
G75*
G02*
X69050000Y-54450000I2500000J0D01*
G01*
X194050000Y-45550000D02*
X192250000Y-43750000D01*
X177700000Y-43750000D02*
X175900000Y-41950000D01*
X177700000Y-43750000D02*
X192250000Y-43750000D01*
X59050000Y-45550000D02*
X60850000Y-43750000D01*
X75400000Y-43750000D02*
X77200000Y-41950000D01*
X75400000Y-43750000D02*
X60850000Y-43750000D01*
X194050000Y-95500000D02*
X194050000Y-45550000D01*
X179050000Y-100000000D02*
X181050000Y-98000000D01*
X62550000Y-103000000D02*
X77050000Y-103000000D01*
X79050000Y-114950000D02*
X83050000Y-118950000D01*
X191550000Y-98000000D02*
X194050000Y-95500000D01*
X177550000Y-118950000D02*
X179050000Y-117450000D01*
X191550000Y-98000000D02*
X181050000Y-98000000D01*
X59050000Y-45550000D02*
X59050000Y-99500000D01*
X83050000Y-118950000D02*
X177550000Y-118950000D01*
X77050000Y-103000000D02*
X79050000Y-105000000D01*
X175900000Y-41950000D02*
X77200000Y-41950000D01*
X79050000Y-105000000D02*
X79050000Y-114950000D01*
X62550000Y-103000000D02*
X59050000Y-99500000D01*
X179050000Y-100000000D02*
X179050000Y-117450000D01*
M02*
