#VRML V2.0 utf8
# 3D model generated by easyeda2kicad.py (https://github.com/uPesy/easyeda2kicad.py)

Shape{
    appearance Appearance {
        material  Material 	{
            diffuseColor 0.7529411764705882 0.7529411764705882 0.7529411764705882
            specularColor 0.3764705882352941 0.3764705882352941 0.3764705882352941
            ambientIntensity 0.2
            transparency 0
            shininess 0.5
        }
    }
    geometry IndexedFaceSet {
        ccw TRUE
        solid FALSE
        coord DEF co Coordinate {
            point [
                -3.3661 2.4606 1.4025, -3.5236 2.4606 1.4025, -3.3661 2.4606 1.7323, -3.5236 2.4606 1.8898, -2.5787 2.4606 1.7323, -2.5787 2.4606 1.8898, -2.5787 0.8858 1.6535, -2.7924 0.8858 1.6535, -2.7924 1.5666 1.6535, -3.1698 0.8858 1.6535, -3.2874 0.8858 1.6535, -3.1698 1.5666 1.6535, -3.2874 2.3819 1.6535, -2.5787 2.3819 1.6535, -0.596 1.5901 0.0787, -0.5692 1.5496 0.0787, -0.6674 1.4947 0.0787, -3.0512 0.2559 0.0787, -3.248 0.2559 0.0787, -3.248 1.4897 0.0787, 0.0796 1.5672 0.0787, 0.1143 1.5308 0.0787, 0.0392 1.4897 0.0787, 0.1551 1.5051 0.0787, 0.66 1.8884 0.0787, 0.0392 2.4606 0.0787, 0.6954 1.8884 0.0787, 3.248 2.4606 0.0787, 0.6954 1.4947 0.0787, 0.427 1.7097 0.0787, 0.4278 1.6912 0.0787, 0.2536 1.8582 0.0787, 0.4185 1.7479 0.0787, 3.248 1.4897 0.0787, 0.295 1.4897 0.0787, 0.5086 1.4947 0.0787, 0.3123 1.4917 0.0787, 0.3594 1.5098 0.0787, 0.389 1.5843 0.0787, 0.3605 1.5583 0.0787, 0.0796 1.8162 0.0787, 0.1105 1.7925 0.0787, 0.1105 1.5906 0.0787, 0.1421 1.8231 0.0787, 0.1323 1.5686 0.0787, 0.1791 1.844 0.0787, 0.1671 1.5448 0.0787, 0.205 1.5305 0.0787, 0.3001 1.8524 0.0787, 0.3403 1.8369 0.0787, 0.4227 1.6478 0.0787, 0.4102 1.6151 0.0787, 0.1963 1.8501 0.0787, 0.2398 1.8577 0.0787, 0.2824 1.5272 0.0787, 0.3224 1.5375 0.0787, 0.2511 1.525 0.0787, 0.3765 1.8114 0.0787, 0.401 1.7828 0.0787, 0.5086 1.5351 0.0787, 0.4577 1.6419 0.0787, 0.66 1.5351 0.0787, 0.4632 1.6939 0.0787, 0.4567 1.7477 0.0787, 0.4406 1.7894 0.0787, 0.3975 1.5371 0.0787, 0.4133 1.5535 0.0787, 0.4419 1.5966 0.0787, 0.4136 1.8281 0.0787, 0.3726 1.8641 0.0787, 0.3309 1.8852 0.0787, 0.2828 1.8967 0.0787, 0.2513 1.8985 0.0787, 0.194 1.8919 0.0787, 0.1582 1.8796 0.0787, 0.1153 1.8536 0.0787, 0.0912 1.8307 0.0787, 3.248 0.2559 0.0787, 2.874 0.2559 0.0787, 2.874 0.2953 0.0787, 2.3622 0.2559 0.0787, 2.0866 0.2559 0.0787, 2.0866 0.2953 0.0787, 2.6378 0.2953 0.0787, 2.6378 0.2559 0.0787, 1.2992 0.2559 0.0787, 1.2992 0.2953 0.0787, 1.5748 0.2559 0.0787, 1.8504 0.2953 0.0787, 1.8504 0.2559 0.0787, 0.7874 0.2559 0.0787, 0.5118 0.2559 0.0787, 0.5118 0.2953 0.0787, 0.1999 1.4899 0.0787, 0.2012 1.4897 0.0787, 1.063 0.2953 0.0787, 0.2312 1.4854 0.0787, 0.2509 1.4846 0.0787, 0.2756 0.2559 0.0787, 0.0392 0.2559 0.0787, 0.2756 0.2953 0.0787, 1.063 0.2559 0.0787, -0.0 0.2559 0.0787, -0.2756 0.2559 0.0787, -0.2756 0.2953 0.0787, -0.5118 0.2953 0.0787, -0.7874 0.2559 0.0787, -1.063 0.2559 0.0787, -1.063 0.2953 0.0787, -1.8504 0.2953 0.0787, -2.0866 0.2953 0.0787, -1.2992 0.2953 0.0787, -1.2992 0.2559 0.0787, -1.5748 0.2559 0.0787, -0.5118 0.2559 0.0787, -1.8504 0.2559 0.0787, -2.3622 0.2559 0.0787, -2.6378 0.2559 0.0787, -2.6378 0.2953 0.0787, -2.874 0.2559 0.0787, -2.874 0.2953 0.0787, -2.0866 0.2559 0.0787, -0.2233 1.8481 0.0787, -0.0365 1.8481 0.0787, -0.0365 1.7269 0.0787, -0.2233 1.7269 0.0787, -0.2233 1.6865 0.0787, -0.2939 1.4947 0.0787, -3.248 2.4606 0.0787, -0.8593 1.8884 0.0787, -0.8542 1.8884 0.0787, -0.0012 1.8884 0.0787, -0.2233 1.8884 0.0787, -0.2939 1.8884 0.0787, -0.3734 1.8884 0.0787, -0.4365 1.886 0.0787, -0.4984 1.8742 0.0787, -0.5382 1.8541 0.0787, -0.567 1.8291 0.0787, -0.592 1.7936 0.0787, -0.6085 1.7525 0.0787, -0.0365 1.6865 0.0787, -0.0365 1.5351 0.0787, -0.2233 1.5351 0.0787, -0.2233 1.4947 0.0787, -0.6164 1.7049 0.0787, -0.617 1.6866 0.0787, -0.6114 1.634 0.0787, -0.5397 1.5236 0.0787, -0.5101 1.5083 0.0787, -0.4621 1.4973 0.0787, -0.4159 1.4947 0.0787, -0.0012 1.4947 0.0787, -1.041 1.4947 0.0787, -1.0026 1.4947 0.0787, -0.706 1.4947 0.0787, -0.7659 1.6209 0.0787, -0.9443 1.6209 0.0787, 3.5236 2.4606 0.0, 3.5236 -0.5315 0.0, 3.248 2.4606 0.0, 3.248 -0.5315 0.0, 2.874 0.2559 0.7874, 2.874 0.2953 0.7874, 2.6378 0.2953 0.7874, 2.6378 0.2559 0.7874, -2.6378 0.2559 0.7874, -2.6378 0.2953 0.7874, -2.874 0.2953 0.7874, -2.874 0.2559 0.7874, -1.8504 0.2559 0.7874, -1.8504 0.2953 0.7874, -2.0866 0.2953 0.7874, -2.0866 0.2559 0.7874, -1.063 0.2559 0.7874, -1.063 0.2953 0.7874, -1.2992 0.2953 0.7874, -1.2992 0.2559 0.7874, -0.2756 0.2559 0.7874, -0.2756 0.2953 0.7874, -0.5118 0.2953 0.7874, -0.5118 0.2559 0.7874, 0.5118 0.2559 0.7874, 0.5118 0.2953 0.7874, 0.2756 0.2953 0.7874, 0.2756 0.2559 0.7874, 1.2992 0.2559 0.7874, 1.2992 0.2953 0.7874, 1.063 0.2953 0.7874, 1.063 0.2559 0.7874, 2.0866 0.2559 0.7874, 2.0866 0.2953 0.7874, 1.8504 0.2953 0.7874, 1.8504 0.2559 0.7874, 2.3622 0.2559 1.3607, 2.8543 0.2559 1.1181, 2.6575 0.2559 1.1181, 2.6575 0.2559 1.3189, 2.8543 0.2559 1.3189, 3.248 0.2559 1.3607, 2.0669 0.2559 1.1181, 1.8701 0.2559 1.1181, 1.5748 0.2559 1.3607, 1.8701 0.2559 1.3189, 2.0669 0.2559 1.3189, 1.2795 0.2559 1.1181, 1.0827 0.2559 1.1181, 0.7874 0.2559 1.3607, 1.0827 0.2559 1.3189, 1.2795 0.2559 1.3189, 0.4921 0.2559 1.1181, 0.2953 0.2559 1.1181, -0.0 0.2559 1.3607, 0.2953 0.2559 1.3189, 0.4921 0.2559 1.3189, -0.2953 0.2559 1.1181, -0.4921 0.2559 1.1181, -0.7874 0.2559 1.3607, -0.4921 0.2559 1.3189, -0.2953 0.2559 1.3189, -1.5748 0.2559 1.3607, -1.0827 0.2559 1.1181, -1.2795 0.2559 1.1181, -1.2795 0.2559 1.3189, -1.0827 0.2559 1.3189, -1.8701 0.2559 1.1181, -2.0669 0.2559 1.1181, -2.3622 0.2559 1.3607, -2.0669 0.2559 1.3189, -1.8701 0.2559 1.3189, -2.6575 0.2559 1.1181, -2.8543 0.2559 1.1181, -3.0512 0.2559 1.3607, -2.8543 0.2559 1.3189, -2.6575 0.2559 1.3189, -3.248 0.2559 1.3607, 3.248 0.2559 1.4025, 2.3622 0.2559 1.4025, 1.5748 0.2559 1.4025, 0.7874 0.2559 1.4025, -0.0 0.2559 1.4025, -0.7874 0.2559 1.4025, -1.5748 0.2559 1.4025, -2.3622 0.2559 1.4025, -3.0512 0.2559 1.4025, -3.248 0.2559 1.4025, -3.248 -0.5315 0.0, -3.5236 -0.5315 0.0, -3.248 2.4606 0.0, -3.5236 2.4606 0.0, -3.248 -0.5315 0.6821, -3.5236 -0.5315 0.6821, -3.248 0.0984 1.4025, -3.5236 0.0984 1.4025, -3.3661 2.4606 0.9449, -3.5236 2.4606 0.9449, -3.2874 2.3819 0.9449, -3.5236 1.9882 0.9449, -3.2874 1.9882 0.9449, -3.5236 1.9882 1.4025, -3.2874 2.3819 1.4025, -3.2874 1.9882 1.4025, -3.2874 1.7913 1.2057, -3.5236 1.7913 1.2057, -3.2874 1.8177 1.3041, -3.5236 1.8177 1.3041, -3.2874 1.8898 1.3762, -3.5236 1.8898 1.3762, -3.2874 1.7913 1.1417, -3.5236 1.7913 1.1417, -3.2874 1.8898 0.9713, -3.5236 1.8898 0.9713, -3.2874 1.8177 1.0433, -3.5236 1.8177 1.0433, -3.3661 2.4606 0.2362, 3.3661 2.4606 0.9449, 3.5236 2.4606 0.9449, 3.3661 2.4606 0.2362, 3.5236 1.9882 0.9449, 3.5236 1.8177 1.0433, 3.5236 0.0984 1.4025, 3.5236 1.8898 0.9713, 3.5236 -0.5315 0.6821, 3.5236 1.7913 1.1417, 3.5236 1.7913 1.2057, 3.5236 0.0984 1.8898, 3.5236 1.8177 1.3041, 3.5236 1.8898 1.3762, 3.5236 2.4606 1.8898, 3.5236 1.9882 1.4025, 3.5236 2.4606 1.4025, 2.5787 2.4606 1.7323, 2.5787 2.4606 1.8898, 3.3661 2.4606 1.7323, 3.3661 2.4606 1.4025, -3.5236 0.0984 1.8898, 3.248 -0.5315 0.6821, 3.1698 0.0984 1.8898, 3.1698 1.5666 1.8898, 2.7924 1.5666 1.8898, 2.5787 0.8858 1.8898, 2.7924 0.0984 1.8898, 2.3622 0.8858 1.8898, 1.5748 0.8858 1.8898, 0.7874 0.8858 1.8898, -0.0 0.8858 1.8898, -2.7924 0.0984 1.8898, -0.7874 0.8858 1.8898, -1.5748 0.8858 1.8898, -3.1698 0.0984 1.8898, -3.1698 1.5666 1.8898, -2.7924 1.5666 1.8898, -2.5787 0.8858 1.8898, -2.3622 0.8858 1.8898, 3.248 0.0984 1.4025, 2.7924 0.0984 1.6535, -2.7924 0.0984 1.6535, -3.1698 0.0984 1.6535, 3.1698 0.0984 1.6535, 3.2874 2.3819 0.9449, 3.2874 1.9882 0.9449, 3.2874 2.3819 1.4025, 3.2874 1.9882 1.4025, 3.2874 1.7913 1.2057, 3.2874 1.8177 1.3041, 3.2874 1.8898 1.3762, 3.2874 1.7913 1.1417, 3.2874 1.8898 0.9713, 3.2874 1.8177 1.0433, -3.2874 0.8858 0.315, -3.2874 1.9372 0.9516, -3.2874 2.3819 0.315, -3.2874 1.798 1.2566, -3.2874 1.849 1.3449, -3.2874 1.849 1.0025, -3.2874 0.8858 0.7185, -3.2874 1.9372 1.3958, -3.2874 1.798 1.0908, 3.2874 1.9372 1.3958, 3.2874 0.8858 1.6535, 3.2874 1.849 1.3449, 3.2874 1.849 1.0025, 3.2874 0.8858 0.315, 3.2874 1.9372 0.9516, 3.2874 2.3819 0.315, 3.2874 2.3819 1.6535, 3.2874 0.8858 0.7185, 3.2874 1.798 1.0908, 3.2874 1.798 1.2566, -3.0709 0.8858 0.315, -2.3622 0.8858 0.315, -1.5748 0.8858 0.315, -0.7874 0.8858 0.315, -0.0 0.8858 0.315, 0.7874 0.8858 0.315, 1.5748 0.8858 0.315, 2.3622 0.8858 0.315, 3.1698 0.8858 1.6535, 3.1698 1.5666 1.6535, 2.7924 0.8858 1.6535, 2.5787 0.8858 1.6535, 2.7924 1.5666 1.6535, 2.5787 2.3819 1.6535, 2.8543 0.8858 1.122, 2.8543 0.8858 1.3189, 2.3622 0.8858 0.7185, 2.6575 0.8858 1.3189, 2.6575 0.8858 1.122, -2.8543 0.8858 1.3189, -2.8543 0.8858 1.122, -3.0709 0.8858 0.7185, -2.3622 0.8858 0.7185, -2.6575 0.8858 1.122, -2.6575 0.8858 1.3189, -3.0709 0.8858 1.6535, 1.8701 0.8858 1.122, 1.5748 0.8858 0.7185, 1.8701 0.8858 1.3189, 2.0669 0.8858 1.3189, 2.0669 0.8858 1.122, 1.0827 0.8858 1.122, 0.7874 0.8858 0.7185, 1.0827 0.8858 1.3189, 1.2795 0.8858 1.3189, 1.2795 0.8858 1.122, 0.2953 0.8858 1.122, -0.0 0.8858 0.7185, 0.2953 0.8858 1.3189, 0.4921 0.8858 1.3189, 0.4921 0.8858 1.122, -0.4921 0.8858 1.122, -0.7874 0.8858 0.7185, -0.4921 0.8858 1.3189, -0.2953 0.8858 1.3189, -0.2953 0.8858 1.122, -1.2795 0.8858 1.122, -1.5748 0.8858 0.7185, -1.2795 0.8858 1.3189, -1.0827 0.8858 1.3189, -1.0827 0.8858 1.122, -2.0669 0.8858 1.122, -2.0669 0.8858 1.3189, -1.8701 0.8858 1.3189, -1.8701 0.8858 1.122, -1.8701 0.8858 1.122
            ]
        }
        coordIndex [
            0,1,2,-1,2,1,3,-1,2,3,4,-1,4,3,5,-1,6,7,8,-1,9,10,11,-1,11,10,12,-1,11,12,8,-1,8,12,13,-1,8,13,6,-1,14,15,16,-1,17,18,19,-1,20,21,22,-1,22,21,23,-1,24,25,26,-1,26,25,27,-1,26,27,28,-1,29,30,31,-1,29,31,32,-1,27,33,28,-1,28,33,34,-1,28,34,35,-1,35,34,36,-1,35,36,37,-1,31,38,39,-1,40,41,42,-1,42,41,43,-1,42,43,44,-1,44,43,45,-1,44,45,46,-1,46,45,47,-1,31,48,49,-1,30,50,31,-1,31,50,51,-1,31,51,38,-1,52,53,54,-1,54,53,31,-1,54,31,55,-1,55,31,39,-1,52,54,45,-1,45,54,56,-1,45,56,47,-1,49,57,31,-1,31,57,58,-1,31,58,32,-1,59,60,61,-1,61,60,62,-1,61,62,24,-1,24,62,63,-1,24,63,64,-1,37,65,35,-1,35,65,66,-1,35,66,59,-1,59,66,67,-1,59,67,60,-1,64,68,24,-1,24,68,69,-1,24,69,25,-1,25,69,70,-1,25,70,71,-1,71,72,25,-1,25,72,73,-1,25,73,74,-1,74,75,25,-1,25,75,76,-1,25,76,40,-1,77,78,79,-1,80,81,82,-1,83,84,80,-1,80,82,83,-1,83,82,34,-1,83,34,79,-1,79,34,33,-1,79,33,77,-1,85,86,87,-1,87,86,88,-1,87,88,89,-1,90,91,92,-1,23,93,22,-1,22,93,94,-1,22,94,95,-1,94,96,95,-1,95,96,97,-1,95,97,86,-1,86,97,34,-1,86,34,88,-1,88,34,82,-1,98,99,100,-1,100,99,22,-1,100,22,92,-1,92,22,95,-1,92,95,90,-1,90,95,101,-1,102,103,104,-1,99,102,22,-1,22,102,104,-1,22,104,19,-1,19,104,105,-1,106,107,108,-1,109,110,19,-1,111,112,113,-1,114,106,105,-1,105,106,108,-1,105,108,19,-1,19,108,111,-1,19,111,109,-1,109,111,113,-1,109,113,115,-1,116,117,118,-1,119,17,120,-1,120,17,19,-1,120,19,118,-1,118,19,110,-1,118,110,116,-1,116,110,121,-1,122,123,124,-1,125,126,127,-1,128,25,129,-1,129,25,130,-1,42,20,40,-1,40,20,22,-1,40,22,25,-1,25,22,131,-1,25,131,132,-1,124,125,122,-1,122,125,127,-1,122,127,132,-1,132,127,133,-1,132,133,25,-1,25,133,134,-1,134,135,25,-1,25,135,136,-1,25,136,130,-1,130,136,137,-1,137,138,130,-1,130,138,139,-1,130,139,140,-1,141,142,126,-1,126,142,143,-1,126,143,127,-1,127,143,144,-1,140,145,130,-1,130,145,146,-1,130,146,16,-1,16,146,147,-1,16,147,14,-1,15,148,16,-1,16,148,149,-1,16,149,150,-1,151,127,19,-1,19,127,144,-1,19,144,22,-1,22,144,152,-1,22,152,131,-1,128,129,19,-1,19,129,153,-1,19,153,154,-1,150,151,16,-1,16,151,19,-1,16,19,155,-1,155,19,154,-1,155,154,156,-1,156,154,157,-1,158,159,160,-1,160,159,161,-1,162,163,78,-1,78,163,79,-1,164,165,83,-1,83,165,84,-1,166,167,117,-1,117,167,118,-1,168,169,120,-1,120,169,119,-1,170,171,115,-1,115,171,109,-1,172,173,110,-1,110,173,121,-1,174,175,107,-1,107,175,108,-1,176,177,111,-1,111,177,112,-1,178,179,103,-1,103,179,104,-1,180,181,105,-1,105,181,114,-1,182,183,91,-1,91,183,92,-1,184,185,100,-1,100,185,98,-1,186,187,85,-1,85,187,86,-1,188,189,95,-1,95,189,101,-1,190,191,81,-1,81,191,82,-1,192,193,88,-1,88,193,89,-1,163,164,79,-1,79,164,83,-1,167,168,118,-1,118,168,120,-1,171,172,109,-1,109,172,110,-1,175,176,108,-1,108,176,111,-1,179,180,104,-1,104,180,105,-1,183,184,92,-1,92,184,100,-1,187,188,86,-1,86,188,95,-1,191,192,82,-1,82,192,88,-1,162,78,77,-1,80,84,194,-1,194,84,165,-1,195,196,165,-1,165,196,194,-1,194,196,197,-1,194,197,198,-1,165,162,195,-1,195,162,77,-1,195,77,198,-1,198,77,199,-1,198,199,194,-1,190,200,193,-1,193,200,201,-1,193,201,202,-1,201,203,202,-1,202,203,204,-1,202,204,194,-1,194,204,200,-1,194,200,80,-1,80,200,190,-1,80,190,81,-1,205,87,202,-1,202,87,89,-1,202,89,193,-1,85,87,186,-1,186,87,205,-1,186,205,189,-1,189,205,206,-1,189,206,207,-1,207,206,208,-1,207,208,202,-1,202,208,209,-1,202,209,205,-1,210,90,207,-1,207,90,101,-1,207,101,189,-1,91,90,182,-1,182,90,210,-1,182,210,185,-1,185,210,211,-1,185,211,212,-1,212,211,213,-1,212,213,207,-1,207,213,214,-1,207,214,210,-1,98,185,99,-1,99,185,212,-1,99,212,102,-1,102,212,215,-1,103,102,178,-1,178,102,215,-1,178,215,181,-1,181,215,216,-1,181,216,217,-1,217,216,218,-1,217,218,212,-1,212,218,219,-1,212,219,215,-1,113,112,220,-1,220,112,177,-1,221,106,217,-1,217,106,114,-1,217,114,181,-1,107,106,174,-1,174,106,221,-1,174,221,177,-1,177,221,222,-1,177,222,220,-1,220,222,223,-1,220,223,217,-1,217,223,224,-1,217,224,221,-1,173,170,225,-1,225,226,173,-1,173,226,227,-1,173,227,121,-1,121,227,116,-1,226,228,227,-1,227,228,229,-1,227,229,220,-1,220,229,225,-1,220,225,113,-1,113,225,170,-1,113,170,115,-1,166,230,169,-1,169,230,231,-1,169,231,232,-1,231,233,232,-1,232,233,234,-1,232,234,227,-1,227,234,230,-1,227,230,116,-1,116,230,166,-1,116,166,117,-1,119,169,17,-1,17,169,232,-1,17,232,18,-1,18,232,235,-1,199,236,194,-1,194,236,237,-1,194,237,202,-1,202,237,238,-1,202,238,207,-1,207,238,239,-1,207,239,212,-1,212,239,240,-1,212,240,217,-1,217,240,241,-1,217,241,220,-1,220,241,242,-1,220,242,227,-1,227,242,243,-1,227,243,232,-1,232,243,244,-1,232,244,235,-1,235,244,245,-1,246,247,248,-1,248,247,249,-1,164,163,165,-1,165,163,162,-1,168,167,169,-1,169,167,166,-1,172,171,173,-1,173,171,170,-1,176,175,177,-1,177,175,174,-1,180,179,181,-1,181,179,178,-1,184,183,185,-1,185,183,182,-1,188,187,189,-1,189,187,186,-1,192,191,193,-1,193,191,190,-1,250,251,246,-1,246,251,247,-1,252,253,250,-1,250,253,251,-1,254,255,256,-1,256,255,257,-1,256,257,258,-1,1,0,259,-1,259,0,260,-1,259,260,261,-1,262,263,264,-1,264,263,265,-1,264,265,266,-1,266,265,267,-1,266,267,261,-1,261,267,259,-1,268,269,262,-1,262,269,263,-1,258,257,270,-1,270,257,271,-1,270,271,272,-1,272,271,273,-1,272,273,268,-1,268,273,269,-1,255,254,249,-1,249,254,274,-1,275,276,277,-1,277,276,158,-1,277,158,160,-1,248,249,128,-1,128,249,274,-1,128,274,25,-1,25,274,277,-1,25,277,27,-1,27,277,160,-1,158,276,278,-1,279,280,281,-1,281,280,278,-1,278,280,158,-1,158,280,282,-1,158,282,159,-1,279,283,280,-1,280,283,284,-1,280,284,285,-1,284,286,285,-1,285,286,287,-1,285,287,288,-1,288,287,289,-1,288,289,290,-1,291,292,293,-1,293,292,288,-1,293,288,294,-1,294,288,290,-1,257,255,249,-1,253,257,251,-1,251,257,249,-1,251,249,247,-1,3,1,259,-1,269,273,253,-1,253,273,271,-1,253,271,257,-1,3,259,295,-1,259,267,295,-1,295,267,265,-1,295,265,253,-1,253,265,263,-1,253,263,269,-1,161,159,296,-1,296,159,282,-1,297,285,298,-1,298,285,288,-1,298,288,299,-1,288,292,299,-1,299,292,300,-1,299,300,301,-1,301,300,302,-1,301,302,303,-1,303,304,301,-1,301,304,305,-1,301,305,306,-1,306,305,307,-1,306,307,308,-1,295,309,3,-1,3,309,310,-1,3,310,5,-1,5,310,311,-1,5,311,312,-1,312,311,306,-1,312,306,313,-1,313,306,308,-1,296,282,314,-1,314,282,280,-1,301,306,315,-1,315,306,316,-1,309,295,317,-1,317,295,253,-1,317,253,316,-1,316,253,252,-1,316,252,315,-1,315,252,314,-1,315,314,318,-1,318,314,280,-1,318,280,297,-1,297,280,285,-1,276,275,278,-1,278,275,319,-1,278,319,320,-1,294,290,321,-1,321,290,289,-1,321,289,322,-1,284,323,286,-1,286,323,324,-1,286,324,287,-1,287,324,325,-1,287,325,289,-1,289,325,322,-1,323,284,326,-1,326,284,283,-1,278,320,281,-1,281,320,327,-1,281,327,279,-1,279,327,328,-1,279,328,283,-1,283,328,326,-1,329,330,270,-1,330,329,258,-1,258,329,331,-1,258,331,256,-1,332,264,10,-1,10,264,333,-1,270,334,329,-1,329,334,272,-1,329,272,335,-1,333,266,10,-1,10,266,336,-1,10,336,12,-1,12,336,261,-1,12,261,260,-1,272,337,335,-1,335,337,268,-1,335,268,10,-1,10,268,262,-1,10,262,332,-1,338,325,339,-1,339,325,340,-1,339,340,324,-1,341,327,342,-1,342,327,343,-1,342,343,344,-1,344,343,320,-1,344,320,319,-1,338,339,322,-1,322,339,345,-1,322,345,321,-1,346,347,342,-1,342,347,328,-1,342,328,341,-1,324,348,339,-1,339,348,323,-1,339,323,346,-1,346,323,326,-1,346,326,347,-1,329,349,331,-1,331,349,350,-1,350,351,331,-1,331,351,352,-1,331,352,344,-1,344,352,353,-1,344,353,354,-1,354,355,344,-1,344,355,356,-1,344,356,342,-1,339,357,358,-1,359,360,361,-1,361,360,362,-1,361,362,358,-1,358,362,345,-1,358,345,339,-1,346,363,364,-1,365,302,360,-1,360,302,300,-1,346,364,339,-1,366,359,364,-1,364,359,357,-1,364,357,339,-1,363,346,367,-1,367,346,365,-1,367,365,366,-1,366,365,360,-1,366,360,359,-1,6,312,313,-1,368,369,370,-1,370,369,371,-1,371,369,372,-1,371,372,313,-1,313,372,373,-1,313,373,6,-1,6,373,368,-1,6,368,7,-1,7,368,374,-1,374,368,370,-1,374,370,9,-1,9,370,335,-1,9,335,10,-1,375,376,377,-1,377,376,303,-1,377,303,378,-1,378,303,302,-1,378,302,379,-1,379,302,365,-1,379,365,375,-1,375,365,376,-1,380,381,382,-1,382,381,304,-1,382,304,383,-1,383,304,303,-1,383,303,384,-1,384,303,376,-1,384,376,380,-1,380,376,381,-1,385,386,387,-1,387,386,305,-1,387,305,388,-1,388,305,304,-1,388,304,389,-1,389,304,381,-1,389,381,385,-1,385,381,386,-1,390,391,392,-1,392,391,307,-1,392,307,393,-1,393,307,305,-1,393,305,394,-1,394,305,386,-1,394,386,390,-1,390,386,391,-1,395,396,397,-1,397,396,308,-1,397,308,398,-1,398,308,307,-1,398,307,399,-1,399,307,391,-1,399,391,395,-1,395,391,396,-1,400,371,401,-1,401,371,313,-1,401,313,402,-1,402,313,308,-1,402,308,403,-1,403,308,396,-1,403,396,400,-1,400,396,371,-1,346,342,365,-1,365,342,356,-1,365,356,376,-1,376,356,355,-1,376,355,381,-1,381,355,354,-1,381,354,386,-1,386,354,353,-1,386,353,391,-1,391,353,352,-1,391,352,396,-1,396,352,351,-1,396,351,371,-1,371,351,350,-1,371,350,370,-1,370,350,349,-1,370,349,335,-1,335,349,329,-1,245,252,235,-1,235,252,250,-1,235,250,18,-1,18,250,246,-1,18,246,19,-1,19,246,248,-1,19,248,128,-1,27,160,33,-1,33,160,161,-1,33,161,77,-1,77,161,296,-1,77,296,199,-1,199,296,314,-1,199,314,236,-1,245,236,252,-1,252,236,314,-1,
        ]
    }
}
Shape{
    appearance Appearance {
        material  Material 	{
            diffuseColor 0.796078431372549 0.8235294117647058 0.9372549019607843
            specularColor 0.396078431372549 0.4117647058823529 0.4666666666666667
            ambientIntensity 0.2
            transparency 0
            shininess 0.5
        }
    }
    geometry IndexedFaceSet {
        ccw TRUE
        solid FALSE
        coord DEF co Coordinate {
            point [
                2.8543 0.0984 1.3189, 2.6575 0.0984 1.3189, 2.6575 0.0 1.2925, 2.8543 0.0 1.2925, 2.6575 -0.0721 1.2205, 2.8543 -0.0721 1.2205, 2.6575 -0.0984 1.122, 2.8543 -0.0984 1.122, 2.8543 -0.0984 -1.2795, 2.6575 -0.0984 -1.2795, 2.7165 -0.0394 -1.3386, 2.7165 0.0394 -1.3386, 2.7953 -0.0394 -1.3386, 2.7953 0.0394 -1.3386, 2.6575 0.0984 -1.2795, 2.6575 0.0984 0.9252, 2.8543 0.0984 -1.2795, 2.8543 0.0984 0.9252, 2.6575 0.1186 1.012, 2.6575 0.1749 1.081, 2.6575 0.2559 1.3189, 2.6575 0.2559 1.1181, 2.8543 0.2559 1.3189, 2.8543 0.2559 1.1181, 2.8543 0.1749 1.081, 2.8543 0.1186 1.012, 2.6575 2.1029 1.3189, 2.6575 0.8858 1.3189, 2.8543 2.1029 1.3189, 2.8543 0.8858 1.3189, 2.8543 2.1029 1.122, 2.8543 0.8858 1.122, 2.6575 2.1029 1.122, 2.6575 0.8858 1.122, 2.7165 2.162 1.1811, 2.7165 2.162 1.2598, 2.7953 2.162 1.1811, 2.7953 2.162 1.2598, 2.0669 0.0984 1.3189, 1.8701 0.0984 1.3189, 1.8701 0.0475 1.3122, 2.0669 0.0475 1.3122, 1.8701 0.0 1.2925, 2.0669 0.0 1.2925, 1.8701 -0.0408 1.2612, 2.0669 -0.0408 1.2612, 1.8701 -0.0721 1.2205, 2.0669 -0.0721 1.2205, 1.8701 -0.0917 1.173, 2.0669 -0.0917 1.173, 1.8701 -0.0984 1.122, 2.0669 -0.0984 1.122, 2.0669 -0.0984 -1.2795, 1.8701 -0.0984 -1.2795, 1.9291 -0.0394 -1.3386, 1.9291 0.0394 -1.3386, 2.0079 -0.0394 -1.3386, 2.0079 0.0394 -1.3386, 1.8701 0.0984 -1.2795, 1.8701 0.0984 0.9252, 2.0669 0.0984 -1.2795, 2.0669 0.0984 0.9252, 1.8701 0.1186 1.012, 1.8701 0.1428 1.0497, 1.8701 0.1035 0.9697, 1.8701 0.2559 1.3189, 1.8701 0.2559 1.1181, 1.8701 0.2133 1.1042, 1.8701 0.1749 1.081, 2.0669 0.2133 1.1042, 2.0669 0.2559 1.1181, 2.0669 0.2559 1.3189, 2.0669 0.1035 0.9697, 2.0669 0.1186 1.012, 2.0669 0.1428 1.0497, 2.0669 0.1749 1.081, 1.8701 2.1029 1.3189, 1.8701 0.8858 1.3189, 2.0669 2.1029 1.3189, 2.0669 0.8858 1.3189, 2.0669 2.1029 1.122, 2.0669 0.8858 1.122, 1.8701 2.1029 1.122, 1.8701 0.8858 1.122, 1.9291 2.162 1.1811, 1.9291 2.162 1.2598, 2.0079 2.162 1.1811, 2.0079 2.162 1.2598, 1.2795 0.0984 1.3189, 1.0827 0.0984 1.3189, 1.0827 0.0475 1.3122, 1.2795 0.0475 1.3122, 1.0827 0.0 1.2925, 1.2795 0.0 1.2925, 1.0827 -0.0408 1.2612, 1.2795 -0.0408 1.2612, 1.0827 -0.0721 1.2205, 1.2795 -0.0721 1.2205, 1.0827 -0.0917 1.173, 1.2795 -0.0917 1.173, 1.0827 -0.0984 1.122, 1.2795 -0.0984 1.122, 1.2795 -0.0984 -1.2795, 1.0827 -0.0984 -1.2795, 1.1417 -0.0394 -1.3386, 1.1417 0.0394 -1.3386, 1.2205 -0.0394 -1.3386, 1.2205 0.0394 -1.3386, 1.0827 0.0984 -1.2795, 1.0827 0.0984 0.9252, 1.2795 0.0984 -1.2795, 1.2795 0.0984 0.9252, 1.0827 0.1186 1.012, 1.0827 0.1428 1.0497, 1.0827 0.1035 0.9697, 1.0827 0.2559 1.3189, 1.0827 0.2559 1.1181, 1.0827 0.2133 1.1042, 1.0827 0.1749 1.081, 1.2795 0.2133 1.1042, 1.2795 0.2559 1.1181, 1.2795 0.2559 1.3189, 1.2795 0.1035 0.9697, 1.2795 0.1186 1.012, 1.2795 0.1428 1.0497, 1.2795 0.1749 1.081, 1.0827 2.1029 1.3189, 1.0827 0.8858 1.3189, 1.2795 2.1029 1.3189, 1.2795 0.8858 1.3189, 1.2795 2.1029 1.122, 1.2795 0.8858 1.122, 1.0827 2.1029 1.122, 1.0827 0.8858 1.122, 1.1417 2.162 1.1811, 1.1417 2.162 1.2598, 1.2205 2.162 1.1811, 1.2205 2.162 1.2598, 0.4921 0.0984 1.3189, 0.2953 0.0984 1.3189, 0.2953 0.0475 1.3122, 0.4921 0.0475 1.3122, 0.2953 0.0 1.2925, 0.4921 0.0 1.2925, 0.2953 -0.0408 1.2612, 0.4921 -0.0408 1.2612, 0.2953 -0.0721 1.2205, 0.4921 -0.0721 1.2205, 0.2953 -0.0917 1.173, 0.4921 -0.0917 1.173, 0.2953 -0.0984 1.122, 0.4921 -0.0984 1.122, 0.4921 -0.0984 -1.2795, 0.2953 -0.0984 -1.2795, 0.3543 -0.0394 -1.3386, 0.3543 0.0394 -1.3386, 0.4331 -0.0394 -1.3386, 0.4331 0.0394 -1.3386, 0.2953 0.0984 -1.2795, 0.2953 0.0984 0.9252, 0.4921 0.0984 -1.2795, 0.4921 0.0984 0.9252, 0.2953 0.1186 1.012, 0.2953 0.1428 1.0497, 0.2953 0.1035 0.9697, 0.2953 0.2559 1.3189, 0.2953 0.2559 1.1181, 0.2953 0.2133 1.1042, 0.2953 0.1749 1.081, 0.4921 0.2133 1.1042, 0.4921 0.2559 1.1181, 0.4921 0.2559 1.3189, 0.4921 0.1035 0.9697, 0.4921 0.1186 1.012, 0.4921 0.1428 1.0497, 0.4921 0.1749 1.081, 0.2953 2.1029 1.3189, 0.2953 0.8858 1.3189, 0.4921 2.1029 1.3189, 0.4921 0.8858 1.3189, 0.4921 2.1029 1.122, 0.4921 0.8858 1.122, 0.2953 2.1029 1.122, 0.2953 0.8858 1.122, 0.3543 2.162 1.1811, 0.3543 2.162 1.2598, 0.4331 2.162 1.1811, 0.4331 2.162 1.2598, -0.2953 0.0984 1.3189, -0.4921 0.0984 1.3189, -0.4921 0.0475 1.3122, -0.2953 0.0475 1.3122, -0.4921 0.0 1.2925, -0.2953 0.0 1.2925, -0.4921 -0.0408 1.2612, -0.2953 -0.0408 1.2612, -0.4921 -0.0721 1.2205, -0.2953 -0.0721 1.2205, -0.4921 -0.0917 1.173, -0.2953 -0.0917 1.173, -0.4921 -0.0984 1.122, -0.2953 -0.0984 1.122, -0.2953 -0.0984 -1.2795, -0.4921 -0.0984 -1.2795, -0.4331 -0.0394 -1.3386, -0.4331 0.0394 -1.3386, -0.3543 -0.0394 -1.3386, -0.3543 0.0394 -1.3386, -0.4921 0.0984 -1.2795, -0.4921 0.0984 0.9252, -0.2953 0.0984 -1.2795, -0.2953 0.0984 0.9252, -0.4921 0.1186 1.012, -0.4921 0.1428 1.0497, -0.4921 0.1035 0.9697, -0.4921 0.2559 1.3189, -0.4921 0.2559 1.1181, -0.4921 0.2133 1.1042, -0.4921 0.1749 1.081, -0.2953 0.2133 1.1042, -0.2953 0.2559 1.1181, -0.2953 0.2559 1.3189, -0.2953 0.1035 0.9697, -0.2953 0.1186 1.012, -0.2953 0.1428 1.0497, -0.2953 0.1749 1.081, -0.4921 2.1029 1.3189, -0.4921 0.8858 1.3189, -0.2953 2.1029 1.3189, -0.2953 0.8858 1.3189, -0.2953 2.1029 1.122, -0.2953 0.8858 1.122, -0.4921 2.1029 1.122, -0.4921 0.8858 1.122, -0.4331 2.162 1.1811, -0.4331 2.162 1.2598, -0.3543 2.162 1.1811, -0.3543 2.162 1.2598, -1.0827 0.0984 1.3189, -1.2795 0.0984 1.3189, -1.2795 0.0475 1.3122, -1.0827 0.0475 1.3122, -1.2795 0.0 1.2925, -1.0827 0.0 1.2925, -1.2795 -0.0408 1.2612, -1.0827 -0.0408 1.2612, -1.2795 -0.0721 1.2205, -1.0827 -0.0721 1.2205, -1.2795 -0.0917 1.173, -1.0827 -0.0917 1.173, -1.2795 -0.0984 1.122, -1.0827 -0.0984 1.122, -1.0827 -0.0984 -1.2795, -1.2795 -0.0984 -1.2795, -1.2205 -0.0394 -1.3386, -1.2205 0.0394 -1.3386, -1.1417 -0.0394 -1.3386, -1.1417 0.0394 -1.3386, -1.2795 0.0984 -1.2795, -1.2795 0.0984 0.9252, -1.0827 0.0984 -1.2795, -1.0827 0.0984 0.9252, -1.2795 0.1186 1.012, -1.2795 0.1428 1.0497, -1.2795 0.1749 1.081, -1.2795 0.2559 1.3189, -1.2795 0.2559 1.1181, -1.2795 0.2133 1.1042, -1.2795 0.1035 0.9697, -1.0827 0.2133 1.1042, -1.0827 0.2559 1.1181, -1.0827 0.2559 1.3189, -1.0827 0.1035 0.9697, -1.0827 0.1186 1.012, -1.0827 0.1428 1.0497, -1.0827 0.1749 1.081, -1.2795 2.1029 1.3189, -1.2795 0.8858 1.3189, -1.0827 2.1029 1.3189, -1.0827 0.8858 1.3189, -1.0827 2.1029 1.122, -1.0827 0.8858 1.122, -1.2795 2.1029 1.122, -1.2795 0.8858 1.122, -1.2205 2.162 1.1811, -1.2205 2.162 1.2598, -1.1417 2.162 1.1811, -1.1417 2.162 1.2598, -1.8701 0.0984 1.3189, -2.0669 0.0984 1.3189, -2.0669 0.0475 1.3122, -1.8701 0.0475 1.3122, -2.0669 0.0 1.2925, -1.8701 0.0 1.2925, -2.0669 -0.0408 1.2612, -1.8701 -0.0408 1.2612, -2.0669 -0.0721 1.2205, -1.8701 -0.0721 1.2205, -2.0669 -0.0917 1.173, -1.8701 -0.0917 1.173, -2.0669 -0.0984 1.122, -1.8701 -0.0984 1.122, -1.8701 -0.0984 -1.2795, -2.0669 -0.0984 -1.2795, -2.0079 -0.0394 -1.3386, -2.0079 0.0394 -1.3386, -1.9291 -0.0394 -1.3386, -1.9291 0.0394 -1.3386, -2.0669 0.0984 -1.2795, -2.0669 0.0984 0.9252, -1.8701 0.0984 -1.2795, -1.8701 0.0984 0.9252, -2.0669 0.1186 1.012, -2.0669 0.1428 1.0497, -2.0669 0.1749 1.081, -2.0669 0.2559 1.3189, -2.0669 0.2559 1.1181, -2.0669 0.2133 1.1042, -2.0669 0.1035 0.9697, -1.8701 0.2133 1.1042, -1.8701 0.2559 1.1181, -1.8701 0.2559 1.3189, -1.8701 0.1035 0.9697, -1.8701 0.1186 1.012, -1.8701 0.1428 1.0497, -1.8701 0.1749 1.081, -2.0669 2.1029 1.3189, -2.0669 0.8858 1.3189, -1.8701 2.1029 1.3189, -1.8701 0.8858 1.3189, -1.8701 2.1029 1.122, -1.8701 0.8858 1.122, -2.0669 2.1029 1.122, -2.0669 0.8858 1.122, -2.0079 2.162 1.1811, -2.0079 2.162 1.2598, -1.9291 2.162 1.1811, -1.9291 2.162 1.2598, -2.6575 0.0984 1.3189, -2.8543 0.0984 1.3189, -2.8543 0.0475 1.3122, -2.6575 0.0475 1.3122, -2.8543 0.0 1.2925, -2.6575 0.0 1.2925, -2.8543 -0.0408 1.2612, -2.6575 -0.0408 1.2612, -2.8543 -0.0721 1.2205, -2.6575 -0.0721 1.2205, -2.8543 -0.0917 1.173, -2.6575 -0.0917 1.173, -2.8543 -0.0984 1.122, -2.6575 -0.0984 1.122, -2.6575 -0.0984 -1.2795, -2.8543 -0.0984 -1.2795, -2.7953 -0.0394 -1.3386, -2.7953 0.0394 -1.3386, -2.7165 -0.0394 -1.3386, -2.7165 0.0394 -1.3386, -2.8543 0.0984 -1.2795, -2.8543 0.0984 0.9252, -2.6575 0.0984 -1.2795, -2.6575 0.0984 0.9252, -2.8543 0.2559 1.3189, -2.8543 0.2559 1.1181, -2.8543 0.2133 1.1042, -2.8543 0.1749 1.081, -2.8543 0.1186 1.012, -2.8543 0.1428 1.0497, -2.8543 0.1035 0.9697, -2.6575 0.2133 1.1042, -2.6575 0.2559 1.1181, -2.6575 0.2559 1.3189, -2.6575 0.1428 1.0497, -2.6575 0.1749 1.081, -2.6575 0.1035 0.9697, -2.6575 0.1186 1.012, -2.8543 2.1029 1.3189, -2.8543 0.8858 1.3189, -2.6575 2.1029 1.3189, -2.6575 0.8858 1.3189, -2.6575 2.1029 1.122, -2.6575 0.8858 1.122, -2.8543 2.1029 1.122, -2.8543 0.8858 1.122, -2.7953 2.162 1.1811, -2.7953 2.162 1.2598, -2.7165 2.162 1.1811, -2.7165 2.162 1.2598, -2.7165 2.162 1.2598
            ]
        }
        coordIndex [
            0,1,2,-1,0,2,3,-1,3,2,4,-1,3,4,5,-1,5,4,6,-1,5,6,7,-1,8,7,9,-1,9,7,6,-1,10,11,12,-1,12,11,13,-1,14,15,16,-1,16,15,17,-1,14,9,15,-1,15,9,6,-1,15,6,18,-1,18,6,4,-1,18,4,19,-1,20,21,1,-1,1,21,19,-1,1,19,2,-1,2,19,4,-1,7,8,16,-1,22,0,23,-1,23,0,24,-1,16,17,7,-1,7,17,25,-1,7,25,5,-1,5,25,24,-1,5,24,3,-1,3,24,0,-1,17,15,25,-1,25,15,18,-1,25,18,24,-1,24,18,19,-1,24,19,23,-1,23,19,21,-1,1,0,20,-1,20,0,22,-1,26,27,28,-1,28,27,29,-1,28,29,30,-1,30,29,31,-1,32,33,26,-1,26,33,27,-1,34,35,36,-1,36,35,37,-1,30,31,32,-1,32,31,33,-1,16,13,14,-1,14,13,11,-1,8,12,16,-1,16,12,13,-1,10,9,11,-1,11,9,14,-1,9,10,8,-1,8,10,12,-1,28,37,26,-1,26,37,35,-1,30,36,28,-1,28,36,37,-1,34,32,35,-1,35,32,26,-1,32,34,30,-1,30,34,36,-1,38,39,40,-1,38,40,41,-1,41,40,42,-1,41,42,43,-1,43,42,44,-1,43,44,45,-1,45,44,46,-1,45,46,47,-1,47,46,48,-1,47,48,49,-1,49,48,50,-1,49,50,51,-1,52,51,53,-1,53,51,50,-1,54,55,56,-1,56,55,57,-1,58,59,60,-1,60,59,61,-1,50,48,62,-1,62,48,63,-1,58,53,59,-1,59,53,50,-1,59,50,64,-1,64,50,62,-1,65,66,39,-1,39,66,67,-1,39,67,40,-1,40,67,68,-1,48,46,63,-1,63,46,44,-1,63,44,68,-1,68,44,42,-1,68,42,40,-1,69,70,71,-1,52,60,51,-1,51,60,61,-1,61,72,51,-1,51,72,73,-1,51,73,49,-1,49,73,74,-1,75,45,74,-1,74,45,47,-1,74,47,49,-1,71,38,69,-1,69,38,41,-1,69,41,75,-1,75,41,43,-1,75,43,45,-1,61,59,72,-1,72,59,64,-1,72,64,73,-1,73,64,62,-1,73,62,74,-1,74,62,63,-1,74,63,75,-1,75,63,68,-1,75,68,69,-1,69,68,67,-1,69,67,70,-1,70,67,66,-1,39,38,65,-1,65,38,71,-1,76,77,78,-1,78,77,79,-1,78,79,80,-1,80,79,81,-1,82,83,76,-1,76,83,77,-1,84,85,86,-1,86,85,87,-1,80,81,82,-1,82,81,83,-1,88,89,90,-1,88,90,91,-1,91,90,92,-1,91,92,93,-1,93,92,94,-1,93,94,95,-1,95,94,96,-1,95,96,97,-1,97,96,98,-1,97,98,99,-1,99,98,100,-1,99,100,101,-1,102,101,103,-1,103,101,100,-1,104,105,106,-1,106,105,107,-1,108,109,110,-1,110,109,111,-1,100,98,112,-1,112,98,113,-1,108,103,109,-1,109,103,100,-1,109,100,114,-1,114,100,112,-1,115,116,89,-1,89,116,117,-1,89,117,90,-1,90,117,118,-1,98,96,113,-1,113,96,94,-1,113,94,118,-1,118,94,92,-1,118,92,90,-1,119,120,121,-1,102,110,101,-1,101,110,111,-1,111,122,101,-1,101,122,123,-1,101,123,99,-1,99,123,124,-1,125,95,124,-1,124,95,97,-1,124,97,99,-1,121,88,119,-1,119,88,91,-1,119,91,125,-1,125,91,93,-1,125,93,95,-1,111,109,122,-1,122,109,114,-1,122,114,123,-1,123,114,112,-1,123,112,124,-1,124,112,113,-1,124,113,125,-1,125,113,118,-1,125,118,119,-1,119,118,117,-1,119,117,120,-1,120,117,116,-1,89,88,115,-1,115,88,121,-1,126,127,128,-1,128,127,129,-1,128,129,130,-1,130,129,131,-1,132,133,126,-1,126,133,127,-1,134,135,136,-1,136,135,137,-1,130,131,132,-1,132,131,133,-1,138,139,140,-1,138,140,141,-1,141,140,142,-1,141,142,143,-1,143,142,144,-1,143,144,145,-1,145,144,146,-1,145,146,147,-1,147,146,148,-1,147,148,149,-1,149,148,150,-1,149,150,151,-1,152,151,153,-1,153,151,150,-1,154,155,156,-1,156,155,157,-1,158,159,160,-1,160,159,161,-1,150,148,162,-1,162,148,163,-1,158,153,159,-1,159,153,150,-1,159,150,164,-1,164,150,162,-1,165,166,139,-1,139,166,167,-1,139,167,140,-1,140,167,168,-1,148,146,163,-1,163,146,144,-1,163,144,168,-1,168,144,142,-1,168,142,140,-1,169,170,171,-1,152,160,151,-1,151,160,161,-1,161,172,151,-1,151,172,173,-1,151,173,149,-1,149,173,174,-1,175,145,174,-1,174,145,147,-1,174,147,149,-1,171,138,169,-1,169,138,141,-1,169,141,175,-1,175,141,143,-1,175,143,145,-1,161,159,172,-1,172,159,164,-1,172,164,173,-1,173,164,162,-1,173,162,174,-1,174,162,163,-1,174,163,175,-1,175,163,168,-1,175,168,169,-1,169,168,167,-1,169,167,170,-1,170,167,166,-1,139,138,165,-1,165,138,171,-1,176,177,178,-1,178,177,179,-1,178,179,180,-1,180,179,181,-1,182,183,176,-1,176,183,177,-1,184,185,186,-1,186,185,187,-1,180,181,182,-1,182,181,183,-1,188,189,190,-1,188,190,191,-1,191,190,192,-1,191,192,193,-1,193,192,194,-1,193,194,195,-1,195,194,196,-1,195,196,197,-1,197,196,198,-1,197,198,199,-1,199,198,200,-1,199,200,201,-1,202,201,203,-1,203,201,200,-1,204,205,206,-1,206,205,207,-1,208,209,210,-1,210,209,211,-1,200,198,212,-1,212,198,213,-1,208,203,209,-1,209,203,200,-1,209,200,214,-1,214,200,212,-1,215,216,189,-1,189,216,217,-1,189,217,190,-1,190,217,218,-1,198,196,213,-1,213,196,194,-1,213,194,218,-1,218,194,192,-1,218,192,190,-1,219,220,221,-1,202,210,201,-1,201,210,211,-1,211,222,201,-1,201,222,223,-1,201,223,199,-1,199,223,224,-1,225,195,224,-1,224,195,197,-1,224,197,199,-1,221,188,219,-1,219,188,191,-1,219,191,225,-1,225,191,193,-1,225,193,195,-1,211,209,222,-1,222,209,214,-1,222,214,223,-1,223,214,212,-1,223,212,224,-1,224,212,213,-1,224,213,225,-1,225,213,218,-1,225,218,219,-1,219,218,217,-1,219,217,220,-1,220,217,216,-1,189,188,215,-1,215,188,221,-1,226,227,228,-1,228,227,229,-1,228,229,230,-1,230,229,231,-1,232,233,226,-1,226,233,227,-1,234,235,236,-1,236,235,237,-1,230,231,232,-1,232,231,233,-1,238,239,240,-1,238,240,241,-1,241,240,242,-1,241,242,243,-1,243,242,244,-1,243,244,245,-1,245,244,246,-1,245,246,247,-1,247,246,248,-1,247,248,249,-1,249,248,250,-1,249,250,251,-1,252,251,253,-1,253,251,250,-1,254,255,256,-1,256,255,257,-1,258,259,260,-1,260,259,261,-1,250,248,262,-1,262,248,263,-1,248,246,263,-1,263,246,244,-1,263,244,264,-1,265,266,239,-1,239,266,267,-1,239,267,240,-1,240,267,264,-1,240,264,242,-1,242,264,244,-1,258,253,259,-1,259,253,250,-1,259,250,268,-1,268,250,262,-1,269,270,271,-1,252,260,251,-1,251,260,261,-1,261,272,251,-1,251,272,273,-1,251,273,249,-1,249,273,274,-1,275,245,274,-1,274,245,247,-1,274,247,249,-1,271,238,269,-1,269,238,241,-1,269,241,275,-1,275,241,243,-1,275,243,245,-1,261,259,272,-1,272,259,268,-1,272,268,273,-1,273,268,262,-1,273,262,274,-1,274,262,263,-1,274,263,275,-1,275,263,264,-1,275,264,269,-1,269,264,267,-1,269,267,270,-1,270,267,266,-1,239,238,265,-1,265,238,271,-1,276,277,278,-1,278,277,279,-1,278,279,280,-1,280,279,281,-1,282,283,276,-1,276,283,277,-1,284,285,286,-1,286,285,287,-1,280,281,282,-1,282,281,283,-1,288,289,290,-1,288,290,291,-1,291,290,292,-1,291,292,293,-1,293,292,294,-1,293,294,295,-1,295,294,296,-1,295,296,297,-1,297,296,298,-1,297,298,299,-1,299,298,300,-1,299,300,301,-1,302,301,303,-1,303,301,300,-1,304,305,306,-1,306,305,307,-1,308,309,310,-1,310,309,311,-1,300,298,312,-1,312,298,313,-1,298,296,313,-1,313,296,294,-1,313,294,314,-1,315,316,289,-1,289,316,317,-1,289,317,290,-1,290,317,314,-1,290,314,292,-1,292,314,294,-1,308,303,309,-1,309,303,300,-1,309,300,318,-1,318,300,312,-1,319,320,321,-1,302,310,301,-1,301,310,311,-1,311,322,301,-1,301,322,323,-1,301,323,299,-1,299,323,324,-1,325,295,324,-1,324,295,297,-1,324,297,299,-1,321,288,319,-1,319,288,291,-1,319,291,325,-1,325,291,293,-1,325,293,295,-1,311,309,322,-1,322,309,318,-1,322,318,323,-1,323,318,312,-1,323,312,324,-1,324,312,313,-1,324,313,325,-1,325,313,314,-1,325,314,319,-1,319,314,317,-1,319,317,320,-1,320,317,316,-1,289,288,315,-1,315,288,321,-1,326,327,328,-1,328,327,329,-1,328,329,330,-1,330,329,331,-1,332,333,326,-1,326,333,327,-1,334,335,336,-1,336,335,337,-1,330,331,332,-1,332,331,333,-1,338,339,340,-1,338,340,341,-1,341,340,342,-1,341,342,343,-1,343,342,344,-1,343,344,345,-1,345,344,346,-1,345,346,347,-1,347,346,348,-1,347,348,349,-1,349,348,350,-1,349,350,351,-1,352,351,353,-1,353,351,350,-1,354,355,356,-1,356,355,357,-1,358,359,360,-1,360,359,361,-1,362,363,339,-1,339,363,364,-1,339,364,340,-1,340,364,365,-1,350,348,366,-1,366,348,367,-1,348,346,367,-1,367,346,344,-1,367,344,365,-1,365,344,342,-1,365,342,340,-1,358,353,359,-1,359,353,350,-1,359,350,368,-1,368,350,366,-1,369,370,371,-1,352,360,351,-1,351,360,361,-1,345,372,373,-1,371,338,369,-1,369,338,341,-1,369,341,373,-1,373,341,343,-1,373,343,345,-1,361,374,351,-1,351,374,375,-1,351,375,349,-1,349,375,372,-1,349,372,347,-1,347,372,345,-1,361,359,374,-1,374,359,368,-1,374,368,375,-1,375,368,366,-1,375,366,372,-1,372,366,367,-1,372,367,373,-1,373,367,365,-1,373,365,369,-1,369,365,364,-1,369,364,370,-1,370,364,363,-1,339,338,362,-1,362,338,371,-1,376,377,378,-1,378,377,379,-1,378,379,380,-1,380,379,381,-1,382,383,376,-1,376,383,377,-1,384,385,386,-1,386,385,387,-1,380,381,382,-1,382,381,383,-1,60,57,58,-1,58,57,55,-1,52,56,60,-1,60,56,57,-1,54,53,55,-1,55,53,58,-1,53,54,52,-1,52,54,56,-1,78,87,76,-1,76,87,85,-1,80,86,78,-1,78,86,87,-1,84,82,85,-1,85,82,76,-1,82,84,80,-1,80,84,86,-1,110,107,108,-1,108,107,105,-1,102,106,110,-1,110,106,107,-1,104,103,105,-1,105,103,108,-1,103,104,102,-1,102,104,106,-1,128,137,126,-1,126,137,135,-1,130,136,128,-1,128,136,137,-1,134,132,135,-1,135,132,126,-1,132,134,130,-1,130,134,136,-1,160,157,158,-1,158,157,155,-1,152,156,160,-1,160,156,157,-1,154,153,155,-1,155,153,158,-1,153,154,152,-1,152,154,156,-1,178,187,176,-1,176,187,185,-1,180,186,178,-1,178,186,187,-1,184,182,185,-1,185,182,176,-1,182,184,180,-1,180,184,186,-1,210,207,208,-1,208,207,205,-1,202,206,210,-1,210,206,207,-1,204,203,205,-1,205,203,208,-1,203,204,202,-1,202,204,206,-1,228,237,226,-1,226,237,235,-1,230,236,228,-1,228,236,237,-1,234,232,235,-1,235,232,226,-1,232,234,230,-1,230,234,236,-1,260,257,258,-1,258,257,255,-1,252,256,260,-1,260,256,257,-1,254,253,255,-1,255,253,258,-1,253,254,252,-1,252,254,256,-1,278,287,276,-1,276,287,285,-1,280,286,278,-1,278,286,287,-1,284,282,285,-1,285,282,276,-1,282,284,280,-1,280,284,286,-1,310,307,308,-1,308,307,305,-1,302,306,310,-1,310,306,307,-1,304,303,305,-1,305,303,308,-1,303,304,302,-1,302,304,306,-1,328,337,326,-1,326,337,335,-1,330,336,328,-1,328,336,337,-1,334,332,335,-1,335,332,326,-1,332,334,330,-1,330,334,336,-1,360,357,358,-1,358,357,355,-1,352,356,360,-1,360,356,357,-1,354,353,355,-1,355,353,358,-1,353,354,352,-1,352,354,356,-1,378,387,376,-1,376,387,385,-1,380,386,378,-1,378,386,387,-1,384,382,385,-1,385,382,376,-1,382,384,380,-1,380,384,386,-1,
        ]
    }
}
Shape{
    appearance Appearance {
        material  Material 	{
            diffuseColor 0.7529411764705882 0.7529411764705882 0.7529411764705882
            specularColor 0.3764705882352941 0.3764705882352941 0.3764705882352941
            ambientIntensity 0.2
            transparency 0
            shininess 0.5
        }
    }
    geometry IndexedFaceSet {
        ccw TRUE
        solid FALSE
        coord DEF co Coordinate {
            point [
                -0.8542 1.8884 0.1181, -0.8593 1.8884 0.1181, -0.8542 1.8884 0.0787, -0.8593 1.8884 0.0787, -1.041 1.4947 0.1181, -1.041 1.4947 0.0787, -1.0026 1.4947 0.1181, -1.0026 1.4947 0.0787, -0.9443 1.6209 0.1181, -0.9443 1.6209 0.0787, -0.7659 1.6209 0.1181, -0.7659 1.6209 0.0787, -0.706 1.4947 0.1181, -0.706 1.4947 0.0787, -0.6674 1.4947 0.1181, -0.6674 1.4947 0.0787, -0.9257 1.6613 0.1181, -0.785 1.6613 0.1181, -0.8563 1.8117 0.1181, -0.9257 1.6613 0.0787, -0.8563 1.8117 0.0787, -0.785 1.6613 0.0787, -0.4159 1.4947 0.1181, -0.2939 1.4947 0.1181, -0.4159 1.4947 0.0787, -0.2939 1.4947 0.0787, -0.2939 1.8884 0.1181, -0.2939 1.8884 0.0787, -0.3734 1.8884 0.1181, -0.3734 1.8884 0.0787, -0.4984 1.8742 0.1181, -0.4984 1.8742 0.0787, -0.4365 1.886 0.0787, -0.4365 1.886 0.1181, -0.617 1.6866 0.1181, -0.617 1.6866 0.0787, -0.6164 1.7049 0.0787, -0.6164 1.7049 0.1181, -0.6085 1.7525 0.0787, -0.6085 1.7525 0.1181, -0.592 1.7936 0.0787, -0.592 1.7936 0.1181, -0.567 1.8291 0.0787, -0.567 1.8291 0.1181, -0.5382 1.8541 0.0787, -0.5382 1.8541 0.1181, -0.4621 1.4973 0.0787, -0.4621 1.4973 0.1181, -0.5101 1.5083 0.0787, -0.5101 1.5083 0.1181, -0.5397 1.5236 0.0787, -0.5397 1.5236 0.1181, -0.5692 1.5496 0.0787, -0.5692 1.5496 0.1181, -0.596 1.5901 0.0787, -0.596 1.5901 0.1181, -0.6114 1.634 0.0787, -0.6114 1.634 0.1181, -0.4178 1.8462 0.1181, -0.4779 1.837 0.1181, -0.4956 1.8306 0.1181, -0.525 1.8134 0.1181, -0.5478 1.7912 0.1181, -0.5658 1.7623 0.1181, -0.5774 1.7284 0.1181, -0.5816 1.6867 0.1181, -0.5814 1.6757 0.1181, -0.5744 1.6341 0.1181, -0.5614 1.6043 0.1181, -0.5418 1.5785 0.1181, -0.5184 1.5596 0.1181, -0.487 1.5451 0.1181, -0.4311 1.5367 0.1181, -0.3745 1.5351 0.1181, -0.3293 1.5351 0.1181, -0.3293 1.8481 0.1181, -0.357 1.8481 0.1181, -0.3293 1.8481 0.0787, -0.3293 1.5351 0.0787, -0.357 1.8481 0.0787, -0.4178 1.8462 0.0787, -0.4779 1.837 0.0787, -0.4956 1.8306 0.0787, -0.525 1.8134 0.0787, -0.5478 1.7912 0.0787, -0.5658 1.7623 0.0787, -0.5774 1.7284 0.0787, -0.5816 1.6867 0.0787, -0.5814 1.6757 0.0787, -0.5744 1.6341 0.0787, -0.5614 1.6043 0.0787, -0.5418 1.5785 0.0787, -0.5184 1.5596 0.0787, -0.487 1.5451 0.0787, -0.4311 1.5367 0.0787, -0.3745 1.5351 0.0787, -0.0012 1.4947 0.1181, -0.0012 1.8884 0.1181, -0.0012 1.4947 0.0787, -0.0012 1.8884 0.0787, -0.2233 1.8884 0.1181, -0.2233 1.8884 0.0787, -0.2233 1.8481 0.1181, -0.2233 1.8481 0.0787, -0.0365 1.8481 0.1181, -0.0365 1.8481 0.0787, -0.0365 1.7269 0.1181, -0.0365 1.7269 0.0787, -0.2233 1.7269 0.1181, -0.2233 1.7269 0.0787, -0.2233 1.6865 0.1181, -0.2233 1.6865 0.0787, -0.0365 1.6865 0.1181, -0.0365 1.6865 0.0787, -0.0365 1.5351 0.1181, -0.0365 1.5351 0.0787, -0.2233 1.5351 0.1181, -0.2233 1.5351 0.0787, -0.2233 1.4947 0.1181, -0.2233 1.4947 0.0787, 0.0796 1.8162 0.1181, 0.0796 1.8162 0.0787, 0.0912 1.8307 0.0787, 0.0912 1.8307 0.1181, 0.1153 1.8536 0.0787, 0.1153 1.8536 0.1181, 0.1582 1.8796 0.0787, 0.1582 1.8796 0.1181, 0.194 1.8919 0.0787, 0.194 1.8919 0.1181, 0.2513 1.8985 0.0787, 0.2513 1.8985 0.1181, 0.1105 1.7925 0.1181, 0.1105 1.7925 0.0787, 0.2536 1.8582 0.1181, 0.2536 1.8582 0.0787, 0.2398 1.8577 0.0787, 0.2398 1.8577 0.1181, 0.1963 1.8501 0.0787, 0.1963 1.8501 0.1181, 0.1791 1.844 0.0787, 0.1791 1.844 0.1181, 0.1421 1.8231 0.0787, 0.1421 1.8231 0.1181, 0.4278 1.6912 0.1181, 0.4278 1.6912 0.0787, 0.427 1.7097 0.0787, 0.427 1.7097 0.1181, 0.4185 1.7479 0.0787, 0.4185 1.7479 0.1181, 0.401 1.7828 0.0787, 0.401 1.7828 0.1181, 0.3765 1.8114 0.0787, 0.3765 1.8114 0.1181, 0.3403 1.8369 0.0787, 0.3403 1.8369 0.1181, 0.3001 1.8524 0.0787, 0.3001 1.8524 0.1181, 0.2511 1.525 0.1181, 0.2511 1.525 0.0787, 0.2824 1.5272 0.0787, 0.2824 1.5272 0.1181, 0.3224 1.5375 0.0787, 0.3224 1.5375 0.1181, 0.3605 1.5583 0.0787, 0.3605 1.5583 0.1181, 0.389 1.5843 0.0787, 0.389 1.5843 0.1181, 0.4102 1.6151 0.0787, 0.4102 1.6151 0.1181, 0.4227 1.6478 0.0787, 0.4227 1.6478 0.1181, 0.1105 1.5906 0.1181, 0.1105 1.5906 0.0787, 0.1323 1.5686 0.0787, 0.1323 1.5686 0.1181, 0.1671 1.5448 0.0787, 0.1671 1.5448 0.1181, 0.205 1.5305 0.0787, 0.205 1.5305 0.1181, 0.0796 1.5672 0.1181, 0.0796 1.5672 0.0787, 0.2509 1.4846 0.1181, 0.2509 1.4846 0.0787, 0.2312 1.4854 0.0787, 0.2312 1.4854 0.1181, 0.2012 1.4897 0.0787, 0.1999 1.4899 0.1181, 0.1999 1.4899 0.0787, 0.1551 1.5051 0.0787, 0.1551 1.5051 0.1181, 0.1143 1.5308 0.0787, 0.1143 1.5308 0.1181, 0.295 1.4897 0.0787, 0.3123 1.4917 0.1181, 0.3123 1.4917 0.0787, 0.3594 1.5098 0.1181, 0.3594 1.5098 0.0787, 0.3975 1.5371 0.1181, 0.3975 1.5371 0.0787, 0.4133 1.5535 0.1181, 0.4133 1.5535 0.0787, 0.4632 1.6939 0.1181, 0.4632 1.6939 0.0787, 0.4577 1.6419 0.0787, 0.4577 1.6419 0.1181, 0.4419 1.5966 0.0787, 0.4419 1.5966 0.1181, 0.2828 1.8967 0.0787, 0.2828 1.8967 0.1181, 0.3309 1.8852 0.0787, 0.3309 1.8852 0.1181, 0.3726 1.8641 0.0787, 0.3726 1.8641 0.1181, 0.4136 1.8281 0.0787, 0.4136 1.8281 0.1181, 0.4406 1.7894 0.0787, 0.4406 1.7894 0.1181, 0.4567 1.7477 0.0787, 0.4567 1.7477 0.1181, 0.6954 1.4947 0.1181, 0.6954 1.8884 0.1181, 0.6954 1.4947 0.0787, 0.6954 1.8884 0.0787, 0.66 1.8884 0.1181, 0.66 1.8884 0.0787, 0.66 1.5351 0.1181, 0.66 1.5351 0.0787, 0.5086 1.5351 0.1181, 0.5086 1.5351 0.0787, 0.5086 1.4947 0.1181, 0.5086 1.4947 0.0787, -2.5787 2.4606 1.7323, -2.5787 2.4606 1.8898, -2.5787 2.3819 1.6535, -2.5787 0.8858 1.8898, -2.5787 0.8858 1.6535, 2.5787 2.3819 1.6535, 2.5787 0.8858 1.6535, 2.5787 2.4606 1.7323, 2.5787 0.8858 1.8898, 2.5787 2.4606 1.8898, 3.1698 0.0984 1.6535, 3.1698 0.0984 1.8898, 3.1698 0.8858 1.6535, 3.1698 1.5666 1.8898, 3.1698 1.5666 1.6535, 2.7924 0.0984 1.8898, 2.7924 0.0984 1.6535, 2.7924 1.5666 1.8898, 2.7924 0.8858 1.6535, 2.7924 1.5666 1.6535, -3.1698 0.0984 1.8898, -3.1698 0.0984 1.6535, -3.1698 1.5666 1.8898, -3.1698 0.8858 1.6535, -3.1698 1.5666 1.6535, -2.7924 1.5666 1.6535, -2.7924 1.5666 1.8898, -2.7924 0.0984 1.6535, -2.7924 0.0984 1.8898, -2.7924 0.8858 1.6535, -3.0709 0.8858 1.6535, -3.3661 2.4606 1.7323, -3.2874 2.3819 1.6535, -3.3661 2.4606 1.4025, -3.2874 2.3819 1.4025, 3.3661 2.4606 0.2362, 3.2874 2.3819 0.315, 3.3661 2.4606 0.9449, 3.2874 2.3819 0.9449, -3.3661 2.4606 0.2362, -3.2874 2.3819 0.315, -3.3661 2.4606 0.9449, -3.2874 2.3819 0.9449, 3.3661 2.4606 1.7323, 3.2874 2.3819 1.6535, 3.3661 2.4606 1.4025, 3.2874 2.3819 1.4025, 3.2874 2.3819 1.4025
            ]
        }
        coordIndex [
            0,1,2,-1,2,1,3,-1,1,4,3,-1,3,4,5,-1,4,6,5,-1,5,6,7,-1,6,8,7,-1,7,8,9,-1,8,10,9,-1,9,10,11,-1,10,12,11,-1,11,12,13,-1,12,14,13,-1,13,14,15,-1,14,0,15,-1,15,0,2,-1,16,4,1,-1,0,17,1,-1,1,17,18,-1,1,18,16,-1,14,12,10,-1,6,4,8,-1,8,4,16,-1,8,16,10,-1,10,16,17,-1,10,17,14,-1,14,17,0,-1,16,18,19,-1,19,18,20,-1,17,16,21,-1,21,16,19,-1,18,17,20,-1,20,17,21,-1,22,23,24,-1,24,23,25,-1,23,26,25,-1,25,26,27,-1,26,28,27,-1,27,28,29,-1,30,31,32,-1,30,32,33,-1,33,32,29,-1,33,29,28,-1,34,35,36,-1,34,36,37,-1,37,36,38,-1,37,38,39,-1,39,38,40,-1,39,40,41,-1,41,40,42,-1,41,42,43,-1,43,42,44,-1,43,44,45,-1,45,44,31,-1,45,31,30,-1,22,24,46,-1,22,46,47,-1,47,46,48,-1,47,48,49,-1,49,48,50,-1,49,50,51,-1,51,50,52,-1,51,52,53,-1,53,52,54,-1,53,54,55,-1,55,54,56,-1,55,56,57,-1,57,56,35,-1,57,35,34,-1,58,59,30,-1,30,59,60,-1,30,60,45,-1,45,60,61,-1,45,61,43,-1,43,61,62,-1,43,62,41,-1,41,62,63,-1,41,63,39,-1,39,63,64,-1,39,64,37,-1,37,64,65,-1,37,65,34,-1,34,65,66,-1,34,66,57,-1,57,66,67,-1,57,67,55,-1,55,67,68,-1,55,68,53,-1,53,68,69,-1,53,69,51,-1,51,69,70,-1,51,70,49,-1,49,70,71,-1,49,71,47,-1,47,71,72,-1,47,72,22,-1,22,72,73,-1,22,73,23,-1,23,73,74,-1,23,74,26,-1,26,74,75,-1,26,75,28,-1,28,75,76,-1,28,76,33,-1,33,76,58,-1,33,58,30,-1,75,74,77,-1,77,74,78,-1,76,75,79,-1,79,75,77,-1,76,79,80,-1,76,80,58,-1,58,80,81,-1,58,81,59,-1,59,81,82,-1,59,82,60,-1,60,82,83,-1,60,83,61,-1,61,83,84,-1,61,84,62,-1,62,84,85,-1,62,85,63,-1,63,85,86,-1,63,86,64,-1,64,86,87,-1,64,87,65,-1,65,87,88,-1,65,88,66,-1,66,88,89,-1,66,89,67,-1,67,89,90,-1,67,90,68,-1,68,90,91,-1,68,91,69,-1,69,91,92,-1,69,92,70,-1,70,92,93,-1,70,93,71,-1,71,93,94,-1,71,94,72,-1,72,94,95,-1,72,95,73,-1,74,73,78,-1,78,73,95,-1,96,97,98,-1,98,97,99,-1,97,100,99,-1,99,100,101,-1,100,102,101,-1,101,102,103,-1,102,104,103,-1,103,104,105,-1,104,106,105,-1,105,106,107,-1,106,108,107,-1,107,108,109,-1,108,110,109,-1,109,110,111,-1,110,112,111,-1,111,112,113,-1,112,114,113,-1,113,114,115,-1,114,116,115,-1,115,116,117,-1,116,118,117,-1,117,118,119,-1,118,96,119,-1,119,96,98,-1,96,118,116,-1,116,114,96,-1,96,114,112,-1,96,112,97,-1,102,100,104,-1,104,100,97,-1,104,97,106,-1,106,97,112,-1,106,112,108,-1,108,112,110,-1,120,121,122,-1,120,122,123,-1,123,122,124,-1,123,124,125,-1,125,124,126,-1,125,126,127,-1,127,126,128,-1,127,128,129,-1,129,128,130,-1,129,130,131,-1,120,132,121,-1,121,132,133,-1,134,135,136,-1,134,136,137,-1,137,136,138,-1,137,138,139,-1,139,138,140,-1,139,140,141,-1,141,140,142,-1,141,142,143,-1,143,142,133,-1,143,133,132,-1,144,145,146,-1,144,146,147,-1,147,146,148,-1,147,148,149,-1,149,148,150,-1,149,150,151,-1,151,150,152,-1,151,152,153,-1,153,152,154,-1,153,154,155,-1,155,154,156,-1,155,156,157,-1,157,156,135,-1,157,135,134,-1,158,159,160,-1,158,160,161,-1,161,160,162,-1,161,162,163,-1,163,162,164,-1,163,164,165,-1,165,164,166,-1,165,166,167,-1,167,166,168,-1,167,168,169,-1,169,168,170,-1,169,170,171,-1,171,170,145,-1,171,145,144,-1,172,173,174,-1,172,174,175,-1,175,174,176,-1,175,176,177,-1,177,176,178,-1,177,178,179,-1,179,178,159,-1,179,159,158,-1,172,180,173,-1,173,180,181,-1,182,183,184,-1,182,184,185,-1,185,184,186,-1,185,186,187,-1,186,188,187,-1,187,188,189,-1,187,189,190,-1,190,189,191,-1,190,191,192,-1,192,191,181,-1,192,181,180,-1,183,182,193,-1,193,182,194,-1,193,194,195,-1,195,194,196,-1,195,196,197,-1,197,196,198,-1,197,198,199,-1,199,198,200,-1,199,200,201,-1,202,203,204,-1,202,204,205,-1,205,204,206,-1,205,206,207,-1,207,206,201,-1,207,201,200,-1,131,130,208,-1,131,208,209,-1,209,208,210,-1,209,210,211,-1,211,210,212,-1,211,212,213,-1,213,212,214,-1,213,214,215,-1,215,214,216,-1,215,216,217,-1,217,216,218,-1,217,218,219,-1,219,218,203,-1,219,203,202,-1,132,120,123,-1,180,172,192,-1,192,172,175,-1,192,175,190,-1,190,175,177,-1,190,177,187,-1,187,177,179,-1,187,179,185,-1,185,179,158,-1,132,123,143,-1,143,123,125,-1,143,125,141,-1,141,125,127,-1,141,127,139,-1,139,127,129,-1,139,129,137,-1,137,129,131,-1,137,131,134,-1,134,131,209,-1,134,209,157,-1,157,209,211,-1,157,211,155,-1,155,211,213,-1,155,213,153,-1,153,213,215,-1,153,215,151,-1,151,215,217,-1,151,217,149,-1,149,217,219,-1,149,219,147,-1,147,219,202,-1,147,202,144,-1,144,202,171,-1,171,202,205,-1,171,205,169,-1,169,205,207,-1,169,207,167,-1,167,207,200,-1,167,200,165,-1,165,200,198,-1,165,198,163,-1,163,198,196,-1,163,196,161,-1,161,196,194,-1,161,194,158,-1,158,194,182,-1,158,182,185,-1,220,221,222,-1,222,221,223,-1,221,224,223,-1,223,224,225,-1,224,226,225,-1,225,226,227,-1,226,228,227,-1,227,228,229,-1,228,230,229,-1,229,230,231,-1,230,220,231,-1,231,220,222,-1,224,221,226,-1,226,221,220,-1,226,220,228,-1,228,220,230,-1,19,20,21,-1,77,78,79,-1,79,78,95,-1,79,95,80,-1,80,95,94,-1,80,94,81,-1,90,89,94,-1,94,89,88,-1,94,88,87,-1,93,92,94,-1,94,92,91,-1,94,91,90,-1,87,86,94,-1,94,86,85,-1,94,85,84,-1,84,83,94,-1,94,83,82,-1,94,82,81,-1,232,233,234,-1,234,233,235,-1,234,235,236,-1,237,238,239,-1,239,238,240,-1,239,240,241,-1,242,243,244,-1,244,243,245,-1,244,245,246,-1,247,248,249,-1,249,248,250,-1,249,250,251,-1,251,246,249,-1,249,246,245,-1,242,244,248,-1,248,244,250,-1,252,253,254,-1,254,253,255,-1,254,255,256,-1,256,257,254,-1,254,257,258,-1,259,260,261,-1,261,260,258,-1,261,258,257,-1,255,253,262,-1,262,253,259,-1,262,259,261,-1,263,264,265,-1,265,264,266,-1,232,234,263,-1,263,234,264,-1,267,268,269,-1,269,268,270,-1,271,272,267,-1,267,272,268,-1,273,274,271,-1,271,274,272,-1,275,276,239,-1,239,276,237,-1,277,278,275,-1,275,278,276,-1,
        ]
    }
}