M48
; DRILL file {KiCad 9.0.4} date 2026-03-23T19:46:35+0900
; FORMAT={-:-/ absolute / inch / decimal}
; #@! TF.CreationDate,2026-03-23T19:46:35+09:00
; #@! TF.GenerationSoftware,Kicad,Pcbnew,9.0.4
; #@! TF.FileFunction,Plated,1,6,PTH
FMAT,2
INCH
; #@! TA.AperFunction,Plated,PTH,ViaDrill
T1C0.0079
; #@! TA.AperFunction,Plated,PTH,ViaDrill
T2C0.0118
; #@! TA.AperFunction,Plated,PTH,ComponentDrill
T3C0.0118
; #@! TA.AperFunction,Plated,PTH,ComponentDrill
T4C0.0157
; #@! TA.AperFunction,Plated,PTH,ComponentDrill
T5C0.0197
; #@! TA.AperFunction,Plated,PTH,ComponentDrill
T6C0.0276
; #@! TA.AperFunction,Plated,PTH,ComponentDrill
T7C0.0315
; #@! TA.AperFunction,Plated,PTH,ComponentDrill
T8C0.0335
; #@! TA.AperFunction,Plated,PTH,ComponentDrill
T9C0.0906
%
G90
G05
T1
X2.6329Y-2.4016
X2.7244Y-3.4715
X2.7569Y-4.0039
X2.7894Y-1.9754
X2.878Y-3.015
X2.94Y-3.8425
X2.94Y-3.8872
X3.0128Y-2.8396
X3.1807Y-1.8035
X3.189Y-3.5079
X3.2169Y-2.3398
X3.2687Y-1.811
X3.3465Y-2.8386
X3.3898Y-1.812
X3.4301Y-3.1732
X3.4734Y-1.812
X3.4786Y-2.6988
X3.5236Y-3.8435
X3.5374Y-2.6689
X3.5482Y-3.4656
X3.5709Y-2.7185
X3.5759Y-2.896
X3.5918Y-2.5351
X3.6112Y-2.7067
X3.6122Y-3.2972
X3.624Y-3.0886
X3.6319Y-2.6939
X3.6339Y-2.998
X3.6468Y-2.8925
X3.6486Y-2.753
X3.6496Y-2.7898
X3.6497Y-2.7706
X3.6545Y-3.7943
X3.6547Y-3.3496
X3.6565Y-2.9317
X3.6598Y-2.9978
X3.6633Y-2.9107
X3.667Y-2.725
X3.6729Y-2.7458
X3.6732Y-3.6693
X3.6733Y-3.7835
X3.6734Y-3.3363
X3.6794Y-2.9261
X3.684Y-2.9043
X3.6929Y-3.7742
X3.6932Y-3.2999
X3.6989Y-2.7462
X3.7249Y-2.7466
X3.753Y-2.9043
X3.7539Y-3.1742
X3.7598Y-2.7402
X3.7785Y-3.127
X3.7933Y-3.064
X3.7943Y-1.7638
X3.7977Y-2.7288
X3.8012Y-2.6683
X3.8041Y-2.9949
X3.8085Y-2.9321
X3.8148Y-2.9114
X3.8164Y-3.0408
X3.8199Y-2.7244
X3.8219Y-2.8636
X3.8219Y-2.8372
X3.8257Y-2.8105
X3.8444Y-2.7917
X3.8445Y-2.7697
X3.8484Y-2.9124
X3.8484Y-2.8868
X3.8754Y-3.0519
X3.8898Y-2.2047
X3.8898Y-2.2854
X3.9059Y-2.0545
X3.9154Y-2.1427
X3.9167Y-2.0733
X3.9219Y-2.1215
X3.9365Y-2.082
X3.9453Y-3.4587
X3.9675Y-4.4626
X3.9724Y-2.9518
X3.9774Y-2.4203
X3.9961Y-2.622
X4.0079Y-2.4238
X4.0265Y-2.8663
X4.0551Y-4.502
X4.0768Y-2.5329
X4.0886Y-2.8357
X4.0935Y-3.6683
X4.124Y-3.5807
X4.126Y-2.8357
X4.126Y-2.9921
X4.1575Y-3.1142
X4.1644Y-4.4616
X4.1919Y-3.5079
X4.1988Y-2.187
X4.1988Y-2.3898
X4.2036Y-2.7983
X4.2229Y-2.7884
X4.2244Y-1.8307
X4.2315Y-2.4238
X4.2441Y-1.9915
X4.252Y-4.502
X4.2736Y-2.5512
X4.2759Y-2.4058
X4.3226Y-2.3856
X4.3437Y-2.8827
X4.3573Y-3.0915
X4.3612Y-4.4616
X4.4219Y-2.4301
X4.4222Y-2.6804
X4.4458Y-2.4062
X4.4488Y-4.502
X4.4695Y-2.3849
X4.502Y-4.1831
X4.5266Y-3.5089
X4.5472Y-4.1821
X4.5531Y-4.0912
X4.5728Y-4.1821
X4.5945Y-4.1821
X4.6339Y-3.1073
X4.6437Y-2.6604
X4.6565Y-2.3475
X4.6575Y-3.7736
X4.687Y-2.8386
X4.6969Y-2.9528
X4.6969Y-3.0118
X4.7185Y-3.7402
X4.7185Y-3.7618
X4.7223Y-3.1732
X4.7736Y-1.8504
X4.8346Y-2.7628
X4.8353Y-3.0524
X4.8356Y-2.5059
X4.8395Y-3.1024
X4.8395Y-3.5089
X4.9317Y-2.7673
X4.998Y-3.0118
X4.999Y-4.0925
X5.0029Y-3.4921
X5.0029Y-3.5157
X5.0118Y-3.3248
X5.0177Y-2.9705
X5.0236Y-2.7146
X5.0246Y-1.8455
X5.0846Y-3.435
X5.0846Y-3.5531
X5.0925Y-2.8337
X5.0932Y-3.4549
X5.1043Y-3.5728
X5.1533Y-3.2022
X5.1555Y-2.6043
X5.1565Y-3.7402
X5.1565Y-3.7618
X5.1709Y-2.8522
X5.1978Y-3.127
X5.1983Y-2.9618
X5.1988Y-3.5079
X5.1998Y-3.0984
X5.253Y-2.8937
X5.2532Y-2.7094
X5.2539Y-2.6272
X5.2575Y-2.8563
X5.2579Y-2.828
X5.2648Y-2.7333
X5.2795Y-2.628
X5.2835Y-2.9026
X5.2964Y-2.6415
X5.3149Y-2.8955
X5.3223Y-2.6447
X5.3386Y-3.002
X5.342Y-2.8949
X5.3454Y-2.6413
X5.354Y-2.9129
X5.362Y-2.6274
X5.3681Y-2.2421
X5.3686Y-2.8949
X5.4142Y-2.8948
X5.4169Y-2.6447
X5.4369Y-2.9094
X5.437Y-3.1043
X5.437Y-3.128
X5.44Y-2.6397
X5.4488Y-4.3002
X5.4626Y-2.9094
X5.4764Y-2.563
X5.5295Y-2.6319
X5.5295Y-2.752
X5.5295Y-2.7776
X5.5325Y-3.5344
X5.5669Y-4.2776
X5.5689Y-2.4193
X5.5919Y-2.6198
X5.5965Y-2.4193
X5.627Y-2.5469
X5.6969Y-3.4715
X5.6973Y-2.8908
X5.7087Y-4.4344
X5.7088Y-4.3641
X5.7153Y-2.1464
X5.7304Y-4.3642
X5.7394Y-2.1488
X5.7492Y-2.5469
X5.7539Y-4.4232
X5.7665Y-2.2291
X5.7665Y-2.2791
X5.7702Y-3.1968
X5.7752Y-2.436
X5.8307Y-2.815
X5.8307Y-2.874
X5.8326Y-2.3791
X5.8429Y-2.2291
X5.8494Y-3.1732
X5.874Y-2.002
X5.887Y-2.1484
X5.9311Y-2.0138
X5.9547Y-2.0138
X5.9567Y-2.1417
X5.9668Y-2.8622
X5.9793Y-2.6673
X5.9843Y-2.4795
X5.9882Y-2.7628
X6.061Y-2.0866
X6.061Y-2.1772
X6.0758Y-2.247
X6.0965Y-2.8396
X6.1043Y-2.5828
X6.1378Y-2.563
X6.1886Y-2.692
X6.2343Y-3.2687
X6.2449Y-2.1953
X6.2449Y-2.311
X6.2451Y-3.1742
X6.252Y-3.435
X6.3051Y-2.313
X6.3159Y-2.6299
X6.3425Y-2.6031
X6.3434Y-2.5656
X6.3986Y-2.313
X6.4026Y-2.751
X6.4114Y-2.7047
X6.4121Y-2.7282
X6.4222Y-3.1683
X6.4242Y-2.6594
X6.439Y-2.5964
X6.4422Y-2.4817
X6.4608Y-2.386
X6.4609Y-2.5004
X6.4626Y-2.5952
X6.4774Y-2.5765
X6.5142Y-2.5035
X6.5236Y-2.5896
X6.5247Y-2.3485
X6.5384Y-3.4902
X6.622Y-2.3484
X6.627Y-3.0285
X6.6781Y-2.5039
X6.6978Y-2.9882
X6.6996Y-2.7246
X6.7083Y-2.0512
X6.7106Y-2.3228
X6.7126Y-2.374
X6.8583Y-3.1742
X6.94Y-2.7717
X7.061Y-3.2509
X7.0693Y-2.3146
X7.0693Y-2.3539
X7.1102Y-3.3268
X7.1106Y-3.4463
X7.1161Y-3.3848
X7.1476Y-3.3031
X7.1526Y-3.0059
X7.1575Y-3.4213
X7.1713Y-3.3622
X7.2067Y-2.5049
X7.2461Y-1.9941
T2
X2.4567Y-3.2264
X2.5217Y-2.0453
X2.5217Y-2.2421
X2.7185Y-1.8484
X2.7185Y-2.0453
X2.7185Y-2.2421
X2.9154Y-1.8484
X2.9154Y-2.0453
X2.9154Y-2.2421
X3.3091Y-4.2106
X3.3091Y-4.4075
X3.3091Y-4.6043
X3.4646Y-2.7539
X3.5059Y-4.2106
X3.5059Y-4.4075
X3.5059Y-4.6043
X3.5092Y-2.8567
X3.5256Y-2.0551
X3.5256Y-2.0866
X3.5256Y-2.1201
X3.5571Y-2.1201
X3.5886Y-2.1201
X3.6043Y-1.878
X3.6043Y-1.9055
X3.6043Y-1.9331
X3.6201Y-2.1201
X3.628Y-1.878
X3.628Y-1.9055
X3.628Y-1.9331
X3.6719Y-2.6416
X3.6811Y-3.0138
X3.7028Y-4.4075
X3.7028Y-4.6043
X3.7421Y-2.7825
X3.7589Y-2.8317
X3.7697Y-2.3555
X3.7854Y-2.7933
X3.7854Y-2.8317
X3.7854Y-2.8533
X3.7854Y-2.875
X3.7884Y-2.06
X3.7884Y-2.0984
X3.7953Y-1.815
X3.8071Y-2.0413
X3.8071Y-2.0797
X3.8071Y-2.1171
X3.8213Y-1.968
X3.8228Y-2.6437
X3.8228Y-3.0138
X3.8258Y-2.06
X3.8258Y-2.0984
X3.8445Y-2.0797
X3.8445Y-2.1171
X3.8681Y-2.2697
X3.8996Y-4.6043
X3.9232Y-2.7933
X3.937Y-3.8071
X3.9567Y-2.6791
X3.9744Y-1.9472
X4.0Y-3.435
X4.0Y-3.5039
X4.0Y-3.5728
X4.002Y-1.9472
X4.0285Y-1.9472
X4.0512Y-2.2185
X4.0512Y-2.248
X4.0512Y-2.2776
X4.0512Y-2.3071
X4.0512Y-2.3366
X4.0551Y-1.9472
X4.0748Y-2.2185
X4.0748Y-2.248
X4.0748Y-2.2776
X4.0748Y-2.3071
X4.0748Y-2.3366
X4.0817Y-1.9472
X4.0965Y-4.6043
X4.1083Y-1.9472
X4.1161Y-4.4685
X4.1348Y-1.9472
X4.1772Y-2.6969
X4.1772Y-3.1772
X4.2933Y-4.6043
X4.313Y-4.4685
X4.3189Y-2.0984
X4.3189Y-2.126
X4.3401Y-1.9321
X4.3402Y-1.9557
X4.3402Y-1.9803
X4.3445Y-2.0984
X4.3445Y-2.126
X4.3701Y-2.0984
X4.3701Y-2.126
X4.4606Y-1.9311
X4.4862Y-1.9311
X4.4902Y-2.2421
X4.4902Y-4.4075
X4.4902Y-4.6043
X4.5098Y-1.9311
X4.5098Y-4.4685
X4.5335Y-1.9311
X4.561Y-1.9311
X4.5906Y-1.9311
X4.5925Y-4.0689
X4.5945Y-2.0827
X4.6516Y-2.252
X4.6693Y-1.9803
X4.687Y-4.4075
X4.687Y-4.6043
X4.6929Y-1.9326
X4.7126Y-1.9803
X4.7146Y-2.0394
X4.7146Y-2.063
X4.7382Y-2.0394
X4.7382Y-2.063
X4.7441Y-1.9803
X4.7618Y-2.0394
X4.7618Y-2.063
X4.7805Y-2.002
X4.814Y-2.002
X4.8602Y-2.3425
X4.8704Y-2.0114
X4.8839Y-4.6043
X4.894Y-1.9878
X4.8964Y-4.2141
X4.9173Y-1.9666
X4.9299Y-4.2141
X4.9331Y-2.8366
X4.9409Y-2.5512
X4.941Y-1.9429
X4.9474Y-4.1859
X4.9577Y-1.8465
X4.9659Y-4.3904
X4.971Y-4.1623
X4.9724Y-4.3248
X4.9882Y-4.3681
X4.9911Y-1.8465
X4.9961Y-4.3012
X4.998Y-2.9016
X5.0059Y-4.1285
X5.0059Y-4.162
X5.0113Y-4.4504
X5.0354Y-2.7677
X5.0354Y-2.7913
X5.0768Y-3.2717
X5.1053Y-2.5039
X5.128Y-2.7225
X5.1565Y-3.1402
X5.2244Y-2.9567
X5.2461Y-2.5378
X5.2539Y-3.0079
X5.2776Y-1.8484
X5.2904Y-2.8317
X5.2904Y-2.8691
X5.2913Y-3.0079
X5.2943Y-2.7126
X5.3091Y-2.8504
X5.3278Y-2.8317
X5.3278Y-2.8691
X5.3465Y-2.8504
X5.3622Y-2.7146
X5.3652Y-2.8691
X5.3661Y-3.0079
X5.374Y-2.4508
X5.3996Y-2.7146
X5.4035Y-3.0079
X5.4183Y-2.6959
X5.437Y-3.1654
X5.437Y-2.6772
X5.437Y-2.7146
X5.4409Y-2.5295
X5.4409Y-2.8287
X5.4409Y-3.0079
X5.4557Y-2.6959
X5.4596Y-2.8474
X5.4744Y-1.8484
X5.4744Y-2.7146
X5.4744Y-4.6043
X5.4783Y-2.5295
X5.4793Y-2.2403
X5.5974Y-2.9193
X5.6201Y-2.6713
X5.6201Y-2.7146
X5.6201Y-2.7461
X5.6201Y-2.8169
X5.6299Y-4.4429
X5.6319Y-3.0502
X5.6516Y-2.3583
X5.6634Y-3.3189
X5.6673Y-2.8957
X5.687Y-3.2205
X5.7526Y-4.222
X5.7736Y-2.6614
X5.7815Y-2.499
X5.7815Y-2.5463
X5.8346Y-2.1791
X5.8474Y-2.5482
X5.8642Y-2.4606
X5.8681Y-1.8484
X6.0098Y-2.8524
X6.0236Y-2.0118
X6.065Y-4.4075
X6.065Y-4.6043
X6.2343Y-2.8055
X6.2618Y-1.8484
X6.3219Y-2.7671
X6.3287Y-2.687
X6.3346Y-2.2362
X6.3449Y-2.1652
X6.3622Y-2.4862
X6.3642Y-2.3917
X6.374Y-2.2362
X6.4291Y-2.8701
X6.4587Y-1.8484
X6.4724Y-2.3543
X6.4793Y-2.6398
X6.4793Y-2.6772
X6.4793Y-2.7156
X6.502Y-2.6398
X6.502Y-2.6772
X6.502Y-2.7156
X6.5197Y-2.8701
X6.5233Y-2.4097
X6.5256Y-2.6398
X6.5256Y-2.6772
X6.5256Y-2.7156
X6.5774Y-2.4709
X6.624Y-2.1713
X6.6555Y-1.8484
X6.7028Y-2.6936
X6.7894Y-2.7677
X6.8524Y-1.8484
X6.8524Y-2.0453
X6.9242Y-2.4134
X6.9311Y-2.1516
X7.0039Y-2.4606
X7.0492Y-1.8484
X7.0492Y-2.0453
X7.1339Y-2.372
X7.1407Y-2.4744
X7.2461Y-1.8484
X7.2461Y-2.0453
X7.2461Y-2.2421
X7.3307Y-2.7724
X7.4429Y-2.0453
X7.4429Y-2.2421
X7.4911Y-2.9606
X7.4911Y-2.9843
X7.4911Y-3.0079
X7.4961Y-3.5522
X7.4961Y-3.5758
X7.4961Y-3.5994
T4
X5.7697Y-1.8929
X5.8012Y-1.8929
X5.8173Y-1.9287
X5.8327Y-1.8929
X5.8484Y-1.9287
X5.8799Y-1.9287
X5.8957Y-1.8929
X5.9118Y-1.9287
X5.9272Y-1.8929
X5.9587Y-1.8929
T6
X5.1516Y-2.1969
X5.1713Y-2.1378
X5.2303Y-2.1969
X5.2697Y-2.1378
X5.3091Y-2.1969
X5.3484Y-2.1378
X5.3878Y-2.1969
X5.4469Y-2.1378
X5.4665Y-2.1969
T8
X2.4567Y-3.063
X2.5354Y-3.063
X4.3976Y-4.1614
X4.3976Y-4.2402
X5.813Y-4.4764
X5.813Y-4.5551
T9
X5.0504Y-2.0551
X5.5677Y-2.0551
T3
G00X5.7443Y-1.9287
M15
G01X5.7659Y-1.9287
M16
G05
G00X5.962Y-1.9287
M15
G01X5.9837Y-1.9287
M16
G05
T5
G00X5.6252Y-1.7177
M15
G01X5.6252Y-1.7571
M16
G05
G00X5.687Y-1.9465
M15
G01X5.687Y-1.9701
M16
G05
G00X6.0413Y-1.9465
M15
G01X6.0413Y-1.9701
M16
G05
G00X6.1031Y-1.7177
M15
G01X6.1031Y-1.7571
M16
G05
T7
G00X4.0756Y-1.6853
M15
G01X4.0756Y-1.709
M16
G05
G00X4.0756Y-1.846
M15
G01X4.0756Y-1.8775
M16
G05
G00X4.4165Y-1.6853
M15
G01X4.4165Y-1.709
M16
G05
G00X4.4165Y-1.846
M15
G01X4.4165Y-1.8775
M16
G05
G00X6.1916Y-2.0591
M15
G01X6.1916Y-2.0315
M16
G05
G00X6.2905Y-2.0591
M15
G01X6.2905Y-2.0315
M16
G05
G00X6.4023Y-1.8484
M15
G01X6.3747Y-1.8484
M16
G05
G00X6.4873Y-2.0591
M15
G01X6.4873Y-2.0315
M16
G05
G00X6.5853Y-2.0591
M15
G01X6.5853Y-2.0315
M16
G05
M30
