%TF.GenerationSoftware,KiCad,Pcbnew,9.0.4*%
%TF.CreationDate,2026-03-23T19:47:28+09:00*%
%TF.ProjectId,PortaRe0,506f7274-6152-4653-902e-6b696361645f,rev?*%
%TF.SameCoordinates,Original*%
%TF.FileFunction,Paste,Bot*%
%TF.FilePolarity,Positive*%
%FSLAX46Y46*%
G04 Gerber Fmt 4.6, Leading zero omitted, Abs format (unit mm)*
G04 Created by KiCad (PCBNEW 9.0.4) date 2026-03-23 19:47:28*
%MOMM*%
%LPD*%
G01*
G04 APERTURE LIST*
G04 Aperture macros list*
%AMRoundRect*
0 Rectangle with rounded corners*
0 $1 Rounding radius*
0 $2 $3 $4 $5 $6 $7 $8 $9 X,Y pos of 4 corners*
0 Add a 4 corners polygon primitive as box body*
4,1,4,$2,$3,$4,$5,$6,$7,$8,$9,$2,$3,0*
0 Add four circle primitives for the rounded corners*
1,1,$1+$1,$2,$3*
1,1,$1+$1,$4,$5*
1,1,$1+$1,$6,$7*
1,1,$1+$1,$8,$9*
0 Add four rect primitives between the rounded corners*
20,1,$1+$1,$2,$3,$4,$5,0*
20,1,$1+$1,$4,$5,$6,$7,0*
20,1,$1+$1,$6,$7,$8,$9,0*
20,1,$1+$1,$8,$9,$2,$3,0*%
%AMFreePoly0*
4,1,13,0.335355,0.685355,0.350000,0.650000,0.350000,-0.650000,0.335355,-0.685355,0.300000,-0.700000,-0.300000,-0.700000,-0.335355,-0.685355,-0.350000,-0.650000,-0.350000,0.650000,-0.335355,0.685355,-0.300000,0.700000,0.300000,0.700000,0.335355,0.685355,0.335355,0.685355,$1*%
G04 Aperture macros list end*
%ADD10RoundRect,0.140000X0.140000X0.170000X-0.140000X0.170000X-0.140000X-0.170000X0.140000X-0.170000X0*%
%ADD11RoundRect,0.140000X-0.170000X0.140000X-0.170000X-0.140000X0.170000X-0.140000X0.170000X0.140000X0*%
%ADD12R,1.400000X2.120000*%
%ADD13RoundRect,0.135000X0.135000X0.185000X-0.135000X0.185000X-0.135000X-0.185000X0.135000X-0.185000X0*%
%ADD14RoundRect,0.200000X-0.200000X-0.275000X0.200000X-0.275000X0.200000X0.275000X-0.200000X0.275000X0*%
%ADD15R,0.950000X1.150000*%
%ADD16RoundRect,0.225000X0.250000X-0.225000X0.250000X0.225000X-0.250000X0.225000X-0.250000X-0.225000X0*%
%ADD17RoundRect,0.135000X-0.185000X0.135000X-0.185000X-0.135000X0.185000X-0.135000X0.185000X0.135000X0*%
%ADD18RoundRect,0.140000X0.170000X-0.140000X0.170000X0.140000X-0.170000X0.140000X-0.170000X-0.140000X0*%
%ADD19RoundRect,0.140000X-0.140000X-0.170000X0.140000X-0.170000X0.140000X0.170000X-0.140000X0.170000X0*%
%ADD20O,2.250000X0.630000*%
%ADD21RoundRect,0.135000X-0.135000X-0.185000X0.135000X-0.185000X0.135000X0.185000X-0.135000X0.185000X0*%
%ADD22O,0.800000X0.200000*%
%ADD23O,0.200000X0.800000*%
%ADD24R,5.600000X5.600000*%
%ADD25R,0.530000X1.070000*%
%ADD26R,1.050000X0.700000*%
%ADD27RoundRect,0.135000X0.185000X-0.135000X0.185000X0.135000X-0.185000X0.135000X-0.185000X-0.135000X0*%
%ADD28R,0.910000X0.600000*%
%ADD29O,0.630000X2.250000*%
%ADD30O,2.050000X0.590000*%
%ADD31RoundRect,0.200000X0.275000X-0.200000X0.275000X0.200000X-0.275000X0.200000X-0.275000X-0.200000X0*%
%ADD32R,1.400000X0.900000*%
%ADD33C,0.230000*%
%ADD34RoundRect,0.250001X-0.507499X-0.944999X0.507499X-0.944999X0.507499X0.944999X-0.507499X0.944999X0*%
%ADD35R,1.200000X1.400000*%
%ADD36RoundRect,0.200000X0.200000X0.275000X-0.200000X0.275000X-0.200000X-0.275000X0.200000X-0.275000X0*%
%ADD37R,1.550000X0.300000*%
%ADD38R,2.800000X1.300000*%
%ADD39R,0.600000X0.300000*%
%ADD40R,1.250000X0.300000*%
%ADD41R,2.500000X2.000000*%
%ADD42RoundRect,0.225000X0.225000X0.250000X-0.225000X0.250000X-0.225000X-0.250000X0.225000X-0.250000X0*%
%ADD43R,1.400000X1.200000*%
%ADD44R,1.100000X0.620000*%
%ADD45R,2.000000X1.500000*%
%ADD46R,0.630000X0.280000*%
%ADD47R,0.280000X0.630000*%
%ADD48R,2.700000X2.700000*%
%ADD49R,0.600000X1.520000*%
%ADD50R,1.200000X0.700000*%
%ADD51R,0.200000X0.850000*%
%ADD52R,0.850000X0.200000*%
%ADD53R,3.100000X3.100000*%
%ADD54R,0.800000X0.280000*%
%ADD55R,0.280000X0.800000*%
%ADD56R,1.600000X1.600000*%
%ADD57R,0.700000X1.050000*%
%ADD58RoundRect,0.225000X-0.225000X-0.250000X0.225000X-0.250000X0.225000X0.250000X-0.225000X0.250000X0*%
%ADD59R,1.050000X0.530000*%
%ADD60R,0.700000X0.300000*%
%ADD61R,1.000000X0.300000*%
%ADD62R,0.300000X0.750000*%
%ADD63RoundRect,0.225000X-0.250000X0.225000X-0.250000X-0.225000X0.250000X-0.225000X0.250000X0.225000X0*%
%ADD64FreePoly0,0.000000*%
%ADD65R,0.300000X1.300000*%
%ADD66RoundRect,0.200000X-0.275000X0.200000X-0.275000X-0.200000X0.275000X-0.200000X0.275000X0.200000X0*%
%ADD67R,1.200000X2.700000*%
%ADD68R,1.070000X0.600000*%
%ADD69R,1.117600X0.711200*%
%ADD70R,1.854200X0.762000*%
%ADD71O,1.740000X0.360000*%
%ADD72R,0.300000X0.600000*%
%ADD73R,2.700000X1.200000*%
G04 APERTURE END LIST*
D10*
%TO.C,C57*%
X100860000Y-69050000D03*
X99900000Y-69050000D03*
%TD*%
D11*
%TO.C,C100*%
X140100000Y-62750000D03*
X140100000Y-63710000D03*
%TD*%
D12*
%TO.C,L1*%
X90340000Y-48450000D03*
X94400000Y-48450000D03*
%TD*%
D13*
%TO.C,R30*%
X100900000Y-74450000D03*
X99880000Y-74450000D03*
%TD*%
D14*
%TO.C,R45*%
X119200000Y-57200000D03*
X120850000Y-57200000D03*
%TD*%
D15*
%TO.C,SW_D2*%
X190140000Y-49100000D03*
X186760000Y-49100000D03*
%TD*%
D16*
%TO.C,C109*%
X106050000Y-53550000D03*
X106050000Y-52000000D03*
%TD*%
D13*
%TO.C,R57*%
X71270000Y-78900000D03*
X70250000Y-78900000D03*
%TD*%
D17*
%TO.C,R39*%
X151050000Y-63750000D03*
X151050000Y-64770000D03*
%TD*%
D18*
%TO.C,C14*%
X143300000Y-74510000D03*
X143300000Y-73550000D03*
%TD*%
D19*
%TO.C,C80*%
X159040000Y-70592500D03*
X160000000Y-70592500D03*
%TD*%
D13*
%TO.C,R8*%
X178900000Y-58792500D03*
X177880000Y-58792500D03*
%TD*%
D20*
%TO.C,U5*%
X133770000Y-83082500D03*
X133770000Y-81802500D03*
X133770000Y-80542500D03*
X133770000Y-79272500D03*
X140830000Y-79272500D03*
X140830000Y-80542500D03*
X140830000Y-81802500D03*
X140830000Y-83082500D03*
%TD*%
D19*
%TO.C,C117*%
X160700000Y-60042500D03*
X161660000Y-60042500D03*
%TD*%
D21*
%TO.C,R36*%
X170840000Y-70300000D03*
X171860000Y-70300000D03*
%TD*%
D10*
%TO.C,C91*%
X177710000Y-54650000D03*
X176750000Y-54650000D03*
%TD*%
D21*
%TO.C,R11*%
X121250000Y-49800000D03*
X122270000Y-49800000D03*
%TD*%
D10*
%TO.C,C96*%
X164970000Y-58692500D03*
X164010000Y-58692500D03*
%TD*%
D21*
%TO.C,R60*%
X124980000Y-92050000D03*
X126000000Y-92050000D03*
%TD*%
D22*
%TO.C,U4*%
X141300000Y-66750000D03*
X141300000Y-67150000D03*
X141300000Y-67550000D03*
X141300000Y-67950000D03*
X141300000Y-68350000D03*
X141300000Y-68750000D03*
X141300000Y-69150000D03*
X141300000Y-69550000D03*
X141300000Y-69950000D03*
X141300000Y-70350000D03*
X141300000Y-70750000D03*
X141300000Y-71150000D03*
X141300000Y-71550000D03*
X141300000Y-71950000D03*
X141300000Y-72350000D03*
X141300000Y-72750000D03*
X141300000Y-73150000D03*
X141300000Y-73550000D03*
X141300000Y-73950000D03*
D23*
X140500000Y-74750000D03*
X140100000Y-74750000D03*
X139700000Y-74750000D03*
X139300000Y-74750000D03*
X138900000Y-74750000D03*
X138500000Y-74750000D03*
X138100000Y-74750000D03*
X137700000Y-74750000D03*
X137300000Y-74750000D03*
X136900000Y-74750000D03*
X136500000Y-74750000D03*
X136100000Y-74750000D03*
X135700000Y-74750000D03*
X135300000Y-74750000D03*
X134900000Y-74750000D03*
X134500000Y-74750000D03*
X134100000Y-74750000D03*
X133700000Y-74750000D03*
X133300000Y-74750000D03*
D22*
X132500000Y-73950000D03*
X132500000Y-73550000D03*
X132500000Y-73150000D03*
X132500000Y-72750000D03*
X132500000Y-72350000D03*
X132500000Y-71950000D03*
X132500000Y-71550000D03*
X132500000Y-71150000D03*
X132500000Y-70750000D03*
X132500000Y-70350000D03*
X132500000Y-69950000D03*
X132500000Y-69550000D03*
X132500000Y-69150000D03*
X132500000Y-68750000D03*
X132500000Y-68350000D03*
X132500000Y-67950000D03*
X132500000Y-67550000D03*
X132500000Y-67150000D03*
X132500000Y-66750000D03*
D23*
X133300000Y-65950000D03*
X133700000Y-65950000D03*
X134100000Y-65950000D03*
X134500000Y-65950000D03*
X134900000Y-65950000D03*
X135300000Y-65950000D03*
X135700000Y-65950000D03*
X136100000Y-65950000D03*
X136500000Y-65950000D03*
X136900000Y-65950000D03*
X137300000Y-65950000D03*
X137700000Y-65950000D03*
X138100000Y-65950000D03*
X138500000Y-65950000D03*
X138900000Y-65950000D03*
X139300000Y-65950000D03*
X139700000Y-65950000D03*
X140100000Y-65950000D03*
X140500000Y-65950000D03*
D24*
X136900000Y-70350000D03*
%TD*%
D18*
%TO.C,C112*%
X142000000Y-77960000D03*
X142000000Y-77000000D03*
%TD*%
D25*
%TO.C,D6*%
X139327500Y-60350000D03*
X138377500Y-60350000D03*
X137427500Y-60350000D03*
X137427500Y-58050000D03*
X138377500Y-58050000D03*
X139327500Y-58050000D03*
%TD*%
D26*
%TO.C,B_SW1*%
X77510000Y-45810000D03*
X81710000Y-45810000D03*
X77510000Y-43670000D03*
X81710000Y-43670000D03*
%TD*%
D10*
%TO.C,C99*%
X178860000Y-60792500D03*
X177900000Y-60792500D03*
%TD*%
D17*
%TO.C,R25*%
X150390000Y-54570000D03*
X150390000Y-55590000D03*
%TD*%
D27*
%TO.C,R48*%
X106600000Y-50370000D03*
X106600000Y-49350000D03*
%TD*%
D21*
%TO.C,R44*%
X119830000Y-58450000D03*
X120850000Y-58450000D03*
%TD*%
D19*
%TO.C,C97*%
X162800000Y-59792500D03*
X163760000Y-59792500D03*
%TD*%
D11*
%TO.C,C85*%
X166400000Y-62212500D03*
X166400000Y-63172500D03*
%TD*%
D28*
%TO.C,D8*%
X101030000Y-62360000D03*
X101030000Y-60440000D03*
X103150000Y-61400000D03*
%TD*%
D19*
%TO.C,C79*%
X159040000Y-69642500D03*
X160000000Y-69642500D03*
%TD*%
D16*
%TO.C,C3*%
X91950000Y-53000000D03*
X91950000Y-51450000D03*
%TD*%
D18*
%TO.C,C49*%
X97750000Y-77510000D03*
X97750000Y-76550000D03*
%TD*%
D21*
%TO.C,R22*%
X126130000Y-66700000D03*
X127150000Y-66700000D03*
%TD*%
D10*
%TO.C,C48*%
X144300000Y-66900000D03*
X143340000Y-66900000D03*
%TD*%
D11*
%TO.C,C52*%
X146000000Y-52740000D03*
X146000000Y-53700000D03*
%TD*%
D13*
%TO.C,R61*%
X147000000Y-89475000D03*
X145980000Y-89475000D03*
%TD*%
D29*
%TO.C,RP2040#1*%
X106082500Y-77325000D03*
X104802500Y-77325000D03*
X103542500Y-77325000D03*
X102272500Y-77325000D03*
X102272500Y-70265000D03*
X103542500Y-70265000D03*
X104802500Y-70265000D03*
X106082500Y-70265000D03*
%TD*%
D11*
%TO.C,C58*%
X130850000Y-57500000D03*
X130850000Y-58460000D03*
%TD*%
D10*
%TO.C,C63*%
X100860000Y-72850000D03*
X99900000Y-72850000D03*
%TD*%
D27*
%TO.C,R7*%
X94800000Y-59200000D03*
X94800000Y-58180000D03*
%TD*%
D13*
%TO.C,R17*%
X143870000Y-81800000D03*
X142850000Y-81800000D03*
%TD*%
D21*
%TO.C,R62*%
X145980000Y-90425000D03*
X147000000Y-90425000D03*
%TD*%
D30*
%TO.C,U10*%
X145250000Y-60430000D03*
X145250000Y-59150000D03*
X145250000Y-57890000D03*
X145250000Y-56620000D03*
X150390000Y-56620000D03*
X150390000Y-57890000D03*
X150390000Y-59150000D03*
X150390000Y-60430000D03*
%TD*%
D13*
%TO.C,R2*%
X101600000Y-54650000D03*
X100580000Y-54650000D03*
%TD*%
D11*
%TO.C,C77*%
X153350000Y-72450000D03*
X153350000Y-73410000D03*
%TD*%
D19*
%TO.C,C93*%
X177910000Y-57785000D03*
X178870000Y-57785000D03*
%TD*%
D21*
%TO.C,R31*%
X113530000Y-114350000D03*
X114550000Y-114350000D03*
%TD*%
D31*
%TO.C,R9*%
X104500000Y-55800000D03*
X104500000Y-54150000D03*
%TD*%
D17*
%TO.C,R37*%
X152000000Y-63750000D03*
X152000000Y-64770000D03*
%TD*%
D21*
%TO.C,R32*%
X108530000Y-114350000D03*
X109550000Y-114350000D03*
%TD*%
D18*
%TO.C,C111*%
X141050000Y-77960000D03*
X141050000Y-77000000D03*
%TD*%
D10*
%TO.C,C34*%
X144300000Y-70950000D03*
X143340000Y-70950000D03*
%TD*%
D32*
%TO.C,K_SW1*%
X62750000Y-44600000D03*
X66350000Y-44600000D03*
X62750000Y-45900000D03*
X66350000Y-45900000D03*
%TD*%
D18*
%TO.C,C82*%
X162650000Y-73852500D03*
X162650000Y-72892500D03*
%TD*%
D10*
%TO.C,C89*%
X178860000Y-61742500D03*
X177900000Y-61742500D03*
%TD*%
D21*
%TO.C,R20*%
X130980000Y-83100000D03*
X132000000Y-83100000D03*
%TD*%
D33*
%TO.C,U15*%
X144600000Y-111550000D03*
X144600000Y-111950000D03*
X144600000Y-112350000D03*
X145000000Y-111550000D03*
X145000000Y-111950000D03*
X145000000Y-112350000D03*
X145400000Y-111550000D03*
X145400000Y-111950000D03*
X145400000Y-112350000D03*
%TD*%
D34*
%TO.C,C108*%
X152695000Y-57000000D03*
X155950000Y-57000000D03*
%TD*%
D10*
%TO.C,C60*%
X100850000Y-70000000D03*
X99890000Y-70000000D03*
%TD*%
D18*
%TO.C,C69*%
X106100000Y-68500000D03*
X106100000Y-67540000D03*
%TD*%
D19*
%TO.C,C64*%
X88650000Y-70900000D03*
X89610000Y-70900000D03*
%TD*%
D25*
%TO.C,D5*%
X153972500Y-54350000D03*
X153022500Y-54350000D03*
X152072500Y-54350000D03*
X152072500Y-52050000D03*
X153022500Y-52050000D03*
X153972500Y-52050000D03*
%TD*%
D29*
%TO.C,RP2040#2*%
X153367500Y-63720000D03*
X154647500Y-63720000D03*
X155907500Y-63720000D03*
X157177500Y-63720000D03*
X157177500Y-70780000D03*
X155907500Y-70780000D03*
X154647500Y-70780000D03*
X153367500Y-70780000D03*
%TD*%
D11*
%TO.C,C86*%
X162650000Y-62192500D03*
X162650000Y-63152500D03*
%TD*%
D35*
%TO.C,Y2*%
X174785000Y-64707500D03*
X174785000Y-66907500D03*
X173085000Y-66907500D03*
X173085000Y-64707500D03*
%TD*%
D21*
%TO.C,R23*%
X126130000Y-67650000D03*
X127150000Y-67650000D03*
%TD*%
D18*
%TO.C,C50*%
X94150000Y-77510000D03*
X94150000Y-76550000D03*
%TD*%
D36*
%TO.C,R18*%
X147800000Y-66200000D03*
X146150000Y-66200000D03*
%TD*%
D27*
%TO.C,R47*%
X125800000Y-85470000D03*
X125800000Y-84450000D03*
%TD*%
D18*
%TO.C,C9*%
X108750000Y-53800000D03*
X108750000Y-52840000D03*
%TD*%
D31*
%TO.C,R51*%
X155300000Y-51100000D03*
X155300000Y-49450000D03*
%TD*%
D37*
%TO.C,M.2*%
X184260000Y-73950000D03*
X191800000Y-74200000D03*
X184260000Y-74450000D03*
X191800000Y-74700000D03*
X184260000Y-74950000D03*
X191800000Y-75200000D03*
X184260000Y-75450000D03*
X191800000Y-75700000D03*
X184260000Y-75950000D03*
X191800000Y-76200000D03*
X184260000Y-76450000D03*
X191800000Y-76700000D03*
X184260000Y-76950000D03*
X191800000Y-77200000D03*
X184260000Y-77450000D03*
X191800000Y-77700000D03*
X184260000Y-77950000D03*
X191800000Y-78200000D03*
X184260000Y-78450000D03*
X191800000Y-78700000D03*
X184260000Y-78950000D03*
X191800000Y-79200000D03*
X184260000Y-79450000D03*
X191800000Y-79700000D03*
X184260000Y-79950000D03*
X191800000Y-80200000D03*
X184260000Y-80450000D03*
X191800000Y-80700000D03*
X184260000Y-80950000D03*
X191800000Y-81200000D03*
X184260000Y-81450000D03*
X191800000Y-81700000D03*
X184260000Y-81950000D03*
X191800000Y-82200000D03*
X184260000Y-82450000D03*
X191800000Y-82700000D03*
X184260000Y-82950000D03*
X191800000Y-83200000D03*
X184260000Y-83450000D03*
X191800000Y-83700000D03*
X184260000Y-83950000D03*
X191800000Y-84200000D03*
X184260000Y-84450000D03*
X191800000Y-84700000D03*
X184260000Y-84950000D03*
X191800000Y-85200000D03*
X184260000Y-85450000D03*
X191800000Y-85700000D03*
X184260000Y-85950000D03*
X191800000Y-86200000D03*
X184260000Y-86450000D03*
X191800000Y-86700000D03*
X184260000Y-86950000D03*
X191800000Y-87200000D03*
X184260000Y-87450000D03*
X191800000Y-87700000D03*
X184260000Y-87950000D03*
X191800000Y-88200000D03*
X184260000Y-90450000D03*
X191800000Y-90700000D03*
X184260000Y-90950000D03*
X191800000Y-91200000D03*
X184260000Y-91450000D03*
X191800000Y-91700000D03*
X184260000Y-91950000D03*
X191800000Y-92200000D03*
X184260000Y-92450000D03*
D38*
X184980000Y-93550000D03*
X184980000Y-72850000D03*
%TD*%
D19*
%TO.C,C20*%
X125990000Y-71100000D03*
X126950000Y-71100000D03*
%TD*%
%TO.C,C87*%
X159040000Y-68692500D03*
X160000000Y-68692500D03*
%TD*%
D13*
%TO.C,R13*%
X130410000Y-65200000D03*
X129390000Y-65200000D03*
%TD*%
D19*
%TO.C,C67*%
X129450000Y-66150000D03*
X130410000Y-66150000D03*
%TD*%
%TO.C,C98*%
X163010000Y-55742500D03*
X163970000Y-55742500D03*
%TD*%
D21*
%TO.C,R59*%
X126130000Y-64800000D03*
X127150000Y-64800000D03*
%TD*%
D10*
%TO.C,C33*%
X147275000Y-85425000D03*
X146315000Y-85425000D03*
%TD*%
D21*
%TO.C,R12*%
X149530000Y-61550000D03*
X150550000Y-61550000D03*
%TD*%
D19*
%TO.C,C24*%
X125990000Y-73000000D03*
X126950000Y-73000000D03*
%TD*%
D18*
%TO.C,C27*%
X191850000Y-70832500D03*
X191850000Y-69872500D03*
%TD*%
D21*
%TO.C,R33*%
X103530000Y-114350000D03*
X104550000Y-114350000D03*
%TD*%
D19*
%TO.C,C19*%
X125990000Y-70150000D03*
X126950000Y-70150000D03*
%TD*%
D21*
%TO.C,R19*%
X129390000Y-64250000D03*
X130410000Y-64250000D03*
%TD*%
D18*
%TO.C,C18*%
X136300000Y-77960000D03*
X136300000Y-77000000D03*
%TD*%
D19*
%TO.C,C65*%
X90550000Y-75250000D03*
X91510000Y-75250000D03*
%TD*%
D10*
%TO.C,C115*%
X177710000Y-55600000D03*
X176750000Y-55600000D03*
%TD*%
D21*
%TO.C,R42*%
X125930000Y-72050000D03*
X126950000Y-72050000D03*
%TD*%
D10*
%TO.C,C105*%
X124410000Y-58550000D03*
X123450000Y-58550000D03*
%TD*%
D27*
%TO.C,R6*%
X95750000Y-59200000D03*
X95750000Y-58180000D03*
%TD*%
D19*
%TO.C,C76*%
X159040000Y-66792500D03*
X160000000Y-66792500D03*
%TD*%
D39*
%TO.C,U7*%
X121950000Y-56500000D03*
X121950000Y-56000000D03*
X121950000Y-55500000D03*
X123450000Y-55500000D03*
X123450000Y-56000000D03*
X123450000Y-56500000D03*
%TD*%
D10*
%TO.C,C62*%
X99850000Y-67105000D03*
X98890000Y-67105000D03*
%TD*%
D18*
%TO.C,C7*%
X90700000Y-52950000D03*
X90700000Y-51990000D03*
%TD*%
D14*
%TO.C,R41*%
X145550000Y-73000000D03*
X147200000Y-73000000D03*
%TD*%
D11*
%TO.C,C46*%
X140100000Y-77010000D03*
X140100000Y-77970000D03*
%TD*%
D10*
%TO.C,C28*%
X144300000Y-70000000D03*
X143340000Y-70000000D03*
%TD*%
D40*
%TO.C,PCIE*%
X148800000Y-84200000D03*
X148800000Y-84700000D03*
X148800000Y-85200000D03*
X148800000Y-85700000D03*
X148800000Y-86200000D03*
X148800000Y-86700000D03*
X148800000Y-87200000D03*
X148800000Y-87700000D03*
X148800000Y-88200000D03*
X148800000Y-88700000D03*
X148800000Y-89200000D03*
X148800000Y-89700000D03*
X148800000Y-90200000D03*
X148800000Y-90700000D03*
X148800000Y-91200000D03*
X148800000Y-91700000D03*
D41*
X151380000Y-93390000D03*
X151380000Y-82510000D03*
%TD*%
D34*
%TO.C,C107*%
X152695000Y-60300000D03*
X155950000Y-60300000D03*
%TD*%
D18*
%TO.C,C38*%
X137250000Y-77960000D03*
X137250000Y-77000000D03*
%TD*%
D42*
%TO.C,C102*%
X121050000Y-53850000D03*
X119500000Y-53850000D03*
%TD*%
D10*
%TO.C,C103*%
X121060000Y-55050000D03*
X120100000Y-55050000D03*
%TD*%
D33*
%TO.C,U9*%
X116050000Y-105000000D03*
X116050000Y-104600000D03*
X116050000Y-104200000D03*
X115650000Y-105000000D03*
X115650000Y-104600000D03*
X115650000Y-104200000D03*
X115250000Y-105000000D03*
X115250000Y-104600000D03*
X115250000Y-104200000D03*
%TD*%
D36*
%TO.C,R35*%
X143050000Y-109500000D03*
X141400000Y-109500000D03*
%TD*%
D10*
%TO.C,C31*%
X147275000Y-84500000D03*
X146315000Y-84500000D03*
%TD*%
D21*
%TO.C,R24*%
X126130000Y-68600000D03*
X127150000Y-68600000D03*
%TD*%
D40*
%TO.C,HDMI*%
X128270000Y-104040000D03*
X128270000Y-104540000D03*
X128270000Y-105040000D03*
X128270000Y-105540000D03*
X128270000Y-106040000D03*
X128270000Y-106540000D03*
X128270000Y-107040000D03*
X128270000Y-107540000D03*
X128270000Y-108040000D03*
X128270000Y-108540000D03*
X128270000Y-109040000D03*
X128270000Y-109540000D03*
X128270000Y-110040000D03*
X128270000Y-110540000D03*
X128270000Y-111040000D03*
X128270000Y-111540000D03*
X128270000Y-112040000D03*
X128270000Y-112540000D03*
X128270000Y-113040000D03*
X128270000Y-113540000D03*
X128270000Y-114040000D03*
X128270000Y-114540000D03*
X128270000Y-115040000D03*
X128270000Y-115540000D03*
D41*
X130850000Y-117230000D03*
X130850000Y-102350000D03*
%TD*%
D27*
%TO.C,R4*%
X98250000Y-57020000D03*
X98250000Y-56000000D03*
%TD*%
D15*
%TO.C,D9*%
X62400000Y-80850000D03*
X65780000Y-80850000D03*
%TD*%
D11*
%TO.C,C54*%
X94150000Y-66140000D03*
X94150000Y-67100000D03*
%TD*%
D18*
%TO.C,C23*%
X134400000Y-77960000D03*
X134400000Y-77000000D03*
%TD*%
%TO.C,C17*%
X135350000Y-77960000D03*
X135350000Y-77000000D03*
%TD*%
D16*
%TO.C,C110*%
X93450000Y-53000000D03*
X93450000Y-51450000D03*
%TD*%
D21*
%TO.C,R14*%
X101030000Y-63450000D03*
X102050000Y-63450000D03*
%TD*%
D43*
%TO.C,Y4*%
X88815000Y-75965000D03*
X86615000Y-75965000D03*
X86615000Y-74265000D03*
X88815000Y-74265000D03*
%TD*%
D18*
%TO.C,C11*%
X105700000Y-58210000D03*
X105700000Y-57250000D03*
%TD*%
D16*
%TO.C,C6*%
X98350000Y-49750000D03*
X98350000Y-48200000D03*
%TD*%
D27*
%TO.C,R63*%
X165450000Y-62880000D03*
X165450000Y-61860000D03*
%TD*%
D44*
%TO.C,U3*%
X113300000Y-51859792D03*
X113300000Y-50909792D03*
X113300000Y-49959792D03*
X115900000Y-49959792D03*
X115900000Y-51859792D03*
%TD*%
D10*
%TO.C,C26*%
X144300000Y-67850000D03*
X143340000Y-67850000D03*
%TD*%
D19*
%TO.C,C81*%
X159040000Y-67742500D03*
X160000000Y-67742500D03*
%TD*%
D45*
%TO.C,L3*%
X129650000Y-70450000D03*
X129650000Y-74250000D03*
%TD*%
D18*
%TO.C,C12*%
X115900000Y-53850000D03*
X115900000Y-52890000D03*
%TD*%
D19*
%TO.C,C51*%
X88650000Y-71850000D03*
X89610000Y-71850000D03*
%TD*%
D32*
%TO.C,K_SW2*%
X186650000Y-44580000D03*
X190250000Y-44580000D03*
X186650000Y-45880000D03*
X190250000Y-45880000D03*
%TD*%
D36*
%TO.C,R27*%
X121900000Y-76500000D03*
X120250000Y-76500000D03*
%TD*%
D46*
%TO.C,U1*%
X98575000Y-51650000D03*
X98575000Y-52150000D03*
X98575000Y-52650000D03*
X98575000Y-53150000D03*
X98575000Y-53650000D03*
X98575000Y-54150000D03*
D47*
X97915000Y-54810000D03*
X97415000Y-54810000D03*
X96915000Y-54810000D03*
X96415000Y-54810000D03*
X95915000Y-54810000D03*
X95415000Y-54810000D03*
D46*
X94755000Y-54150000D03*
X94755000Y-53650000D03*
X94755000Y-53150000D03*
X94755000Y-52650000D03*
X94755000Y-52150000D03*
X94755000Y-51650000D03*
D47*
X95415000Y-50990000D03*
X95915000Y-50990000D03*
X96415000Y-50990000D03*
X96915000Y-50990000D03*
X97415000Y-50990000D03*
X97915000Y-50990000D03*
D48*
X96665000Y-52900000D03*
%TD*%
D21*
%TO.C,R64*%
X103530000Y-63400000D03*
X104550000Y-63400000D03*
%TD*%
D49*
%TO.C,SW2*%
X118250000Y-48050000D03*
X121250000Y-48050000D03*
X122750000Y-48050000D03*
D50*
X116900000Y-44650000D03*
X116900000Y-46950000D03*
X124100000Y-44650000D03*
X124100000Y-46950000D03*
%TD*%
D10*
%TO.C,C66*%
X143850000Y-83100000D03*
X142890000Y-83100000D03*
%TD*%
D32*
%TO.C,SW1*%
X97700000Y-44805000D03*
X101300000Y-44805000D03*
X97700000Y-46105000D03*
X101300000Y-46105000D03*
%TD*%
D19*
%TO.C,C25*%
X128700000Y-69175000D03*
X129660000Y-69175000D03*
%TD*%
D16*
%TO.C,C10*%
X104500000Y-58750000D03*
X104500000Y-57200000D03*
%TD*%
D51*
%TO.C,U11*%
X162650000Y-64422500D03*
X163050000Y-64422500D03*
X163450000Y-64422500D03*
X163850000Y-64422500D03*
X164250000Y-64422500D03*
X164650000Y-64422500D03*
X165050000Y-64422500D03*
X165450000Y-64422500D03*
X165850000Y-64422500D03*
X166250000Y-64422500D03*
X166650000Y-64422500D03*
X167050000Y-64422500D03*
X167450000Y-64422500D03*
X167850000Y-64422500D03*
D52*
X168680000Y-65242500D03*
X168680000Y-65642500D03*
X168680000Y-66042500D03*
X168680000Y-66442500D03*
X168680000Y-66842500D03*
X168680000Y-67242500D03*
X168680000Y-67642500D03*
X168680000Y-68042500D03*
X168680000Y-68442500D03*
X168680000Y-68842500D03*
X168680000Y-69242500D03*
X168680000Y-69642500D03*
X168680000Y-70042500D03*
X168680000Y-70442500D03*
D51*
X167850000Y-71262500D03*
X167450000Y-71262500D03*
X167050000Y-71262500D03*
X166650000Y-71262500D03*
X166250000Y-71262500D03*
X165850000Y-71262500D03*
X165450000Y-71262500D03*
X165050000Y-71262500D03*
X164650000Y-71262500D03*
X164250000Y-71262500D03*
X163850000Y-71262500D03*
X163450000Y-71262500D03*
X163050000Y-71262500D03*
X162650000Y-71262500D03*
D52*
X161830000Y-70442500D03*
X161830000Y-70042500D03*
X161830000Y-69642500D03*
X161830000Y-69242500D03*
X161830000Y-68842500D03*
X161830000Y-68442500D03*
X161830000Y-68042500D03*
X161830000Y-67642500D03*
X161830000Y-67242500D03*
X161830000Y-66842500D03*
X161830000Y-66442500D03*
X161830000Y-66042500D03*
X161830000Y-65642500D03*
X161830000Y-65242500D03*
D53*
X165250000Y-67842500D03*
%TD*%
D17*
%TO.C,R10*%
X104500000Y-51980000D03*
X104500000Y-53000000D03*
%TD*%
D54*
%TO.C,U14*%
X159910000Y-57992500D03*
X159910000Y-57492500D03*
X159910000Y-56992500D03*
X159910000Y-56492500D03*
D55*
X160660000Y-55742500D03*
X161160000Y-55742500D03*
X161660000Y-55742500D03*
X162160000Y-55742500D03*
D54*
X162910000Y-56492500D03*
X162910000Y-56992500D03*
X162910000Y-57492500D03*
X162910000Y-57992500D03*
D55*
X162160000Y-58742500D03*
X161660000Y-58742500D03*
X161160000Y-58742500D03*
X160660000Y-58742500D03*
D56*
X161410000Y-57242500D03*
%TD*%
D21*
%TO.C,R58*%
X126130000Y-63850000D03*
X127150000Y-63850000D03*
%TD*%
D28*
%TO.C,D7*%
X104530000Y-62360000D03*
X104530000Y-60440000D03*
X106650000Y-61400000D03*
%TD*%
D18*
%TO.C,C83*%
X166250000Y-73852500D03*
X166250000Y-72892500D03*
%TD*%
D16*
%TO.C,C13*%
X113300000Y-54600000D03*
X113300000Y-53050000D03*
%TD*%
D57*
%TO.C,B_SW2*%
X170390000Y-48840000D03*
X170390000Y-53040000D03*
X172530000Y-48840000D03*
X172530000Y-53040000D03*
%TD*%
D11*
%TO.C,C53*%
X146950000Y-52740000D03*
X146950000Y-53700000D03*
%TD*%
%TO.C,C92*%
X176800000Y-56542500D03*
X176800000Y-57502500D03*
%TD*%
D13*
%TO.C,R38*%
X160000000Y-71542500D03*
X158980000Y-71542500D03*
%TD*%
D21*
%TO.C,R16*%
X130980000Y-80550000D03*
X132000000Y-80550000D03*
%TD*%
D17*
%TO.C,R29*%
X106100000Y-79100000D03*
X106100000Y-80120000D03*
%TD*%
D19*
%TO.C,C72*%
X117360000Y-103350000D03*
X118320000Y-103350000D03*
%TD*%
D11*
%TO.C,C55*%
X97750000Y-66195000D03*
X97750000Y-67155000D03*
%TD*%
D58*
%TO.C,C113*%
X99900000Y-50900000D03*
X101450000Y-50900000D03*
%TD*%
D11*
%TO.C,C2*%
X93200000Y-56050000D03*
X93200000Y-57010000D03*
%TD*%
D19*
%TO.C,C88*%
X159030000Y-72492500D03*
X159990000Y-72492500D03*
%TD*%
D10*
%TO.C,C71*%
X143250000Y-110750000D03*
X142290000Y-110750000D03*
%TD*%
D11*
%TO.C,C42*%
X137250000Y-62750000D03*
X137250000Y-63710000D03*
%TD*%
D10*
%TO.C,C78*%
X171800000Y-69350000D03*
X170840000Y-69350000D03*
%TD*%
D11*
%TO.C,C30*%
X138200000Y-62750000D03*
X138200000Y-63710000D03*
%TD*%
D18*
%TO.C,C16*%
X133450000Y-77960000D03*
X133450000Y-77000000D03*
%TD*%
%TO.C,C95*%
X164560000Y-57702500D03*
X164560000Y-56742500D03*
%TD*%
D14*
%TO.C,R40*%
X145550000Y-71500000D03*
X147200000Y-71500000D03*
%TD*%
D59*
%TO.C,U16*%
X187350000Y-70827500D03*
X187350000Y-69877500D03*
X187350000Y-68927500D03*
X189650000Y-68927500D03*
X189650000Y-70827500D03*
%TD*%
D10*
%TO.C,C106*%
X143550000Y-59150000D03*
X142590000Y-59150000D03*
%TD*%
%TO.C,C119*%
X158610000Y-56492500D03*
X157650000Y-56492500D03*
%TD*%
D13*
%TO.C,R1*%
X101600000Y-53650000D03*
X100580000Y-53650000D03*
%TD*%
D10*
%TO.C,C118*%
X158620000Y-57992500D03*
X157660000Y-57992500D03*
%TD*%
%TO.C,C94*%
X167600000Y-57092500D03*
X166640000Y-57092500D03*
%TD*%
D60*
%TO.C,Stick*%
X145410000Y-106240000D03*
X145410000Y-106740000D03*
X145410000Y-107240000D03*
X145410000Y-107740000D03*
D61*
X148050000Y-108530000D03*
X148050000Y-105450000D03*
%TD*%
D62*
%TO.C,U8*%
X146200000Y-50170000D03*
X146700000Y-50170000D03*
X147200000Y-50170000D03*
X147700000Y-50170000D03*
X148200000Y-50170000D03*
X148700000Y-50170000D03*
X149200000Y-50170000D03*
X149700000Y-50170000D03*
X150200000Y-50170000D03*
X150700000Y-50170000D03*
X151200000Y-50170000D03*
X151700000Y-50170000D03*
%TD*%
D10*
%TO.C,C101*%
X144300000Y-65950000D03*
X143340000Y-65950000D03*
%TD*%
D21*
%TO.C,R15*%
X126130000Y-65750000D03*
X127150000Y-65750000D03*
%TD*%
D13*
%TO.C,R3*%
X87625000Y-46025000D03*
X86605000Y-46025000D03*
%TD*%
D42*
%TO.C,C70*%
X143000000Y-111950000D03*
X141450000Y-111950000D03*
%TD*%
D10*
%TO.C,C61*%
X101250000Y-70950000D03*
X100290000Y-70950000D03*
%TD*%
D63*
%TO.C,C1*%
X94400000Y-55500000D03*
X94400000Y-57050000D03*
%TD*%
D27*
%TO.C,R21*%
X95750000Y-67150000D03*
X95750000Y-66130000D03*
%TD*%
%TO.C,R49*%
X109250000Y-50370000D03*
X109250000Y-49350000D03*
%TD*%
D36*
%TO.C,R28*%
X121900000Y-75000000D03*
X120250000Y-75000000D03*
%TD*%
D13*
%TO.C,R43*%
X121100000Y-56000000D03*
X120080000Y-56000000D03*
%TD*%
D21*
%TO.C,R53*%
X100000000Y-98500000D03*
X101020000Y-98500000D03*
%TD*%
D18*
%TO.C,C74*%
X171750000Y-65810000D03*
X171750000Y-64850000D03*
%TD*%
D21*
%TO.C,R52*%
X124980000Y-93000000D03*
X126000000Y-93000000D03*
%TD*%
D13*
%TO.C,R54*%
X178900000Y-59792500D03*
X177880000Y-59792500D03*
%TD*%
D18*
%TO.C,C21*%
X190900000Y-70832500D03*
X190900000Y-69872500D03*
%TD*%
D42*
%TO.C,C104*%
X125000000Y-57350000D03*
X123450000Y-57350000D03*
%TD*%
D21*
%TO.C,R56*%
X70230000Y-77950000D03*
X71250000Y-77950000D03*
%TD*%
D13*
%TO.C,R26*%
X89630000Y-69950000D03*
X88610000Y-69950000D03*
%TD*%
D64*
%TO.C,USBC1*%
X104650000Y-48047500D03*
X105450000Y-48047500D03*
D65*
X106600000Y-48047500D03*
X107600000Y-48047500D03*
X108100000Y-48047500D03*
X109100000Y-48047500D03*
D64*
X111050000Y-48047500D03*
X110250000Y-48047500D03*
D65*
X109600000Y-48047500D03*
X108600000Y-48047500D03*
X107100000Y-48047500D03*
X106100000Y-48047500D03*
%TD*%
D18*
%TO.C,C15*%
X132500000Y-77960000D03*
X132500000Y-77000000D03*
%TD*%
D10*
%TO.C,C84*%
X171800000Y-68400000D03*
X170840000Y-68400000D03*
%TD*%
D16*
%TO.C,C8*%
X107550000Y-53550000D03*
X107550000Y-52000000D03*
%TD*%
D11*
%TO.C,C41*%
X134500000Y-62750000D03*
X134500000Y-63710000D03*
%TD*%
D66*
%TO.C,R5*%
X97000000Y-56550000D03*
X97000000Y-58200000D03*
%TD*%
D19*
%TO.C,C90*%
X166640000Y-55142500D03*
X167600000Y-55142500D03*
%TD*%
D67*
%TO.C,L4*%
X125200000Y-53500000D03*
X122700000Y-53500000D03*
%TD*%
D21*
%TO.C,R34*%
X98880000Y-68050000D03*
X99900000Y-68050000D03*
%TD*%
D11*
%TO.C,C22*%
X133300000Y-62740000D03*
X133300000Y-63700000D03*
%TD*%
D68*
%TO.C,Q1*%
X70230000Y-79900000D03*
X70230000Y-81800000D03*
X67750000Y-80850000D03*
%TD*%
D10*
%TO.C,C56*%
X101250000Y-71895000D03*
X100290000Y-71895000D03*
%TD*%
D27*
%TO.C,R46*%
X126750000Y-85470000D03*
X126750000Y-84450000D03*
%TD*%
D43*
%TO.C,Y1*%
X141850000Y-62750000D03*
X144050000Y-62750000D03*
X144050000Y-64450000D03*
X141850000Y-64450000D03*
%TD*%
D69*
%TO.C,J1*%
X83400000Y-56199998D03*
X83400000Y-54999998D03*
X83400000Y-53799998D03*
X83400000Y-52599998D03*
X83400000Y-51400000D03*
X83400000Y-50200000D03*
D70*
X81974999Y-57750000D03*
X81974999Y-48649998D03*
X79775001Y-57750000D03*
X79775001Y-48649998D03*
%TD*%
D40*
%TO.C,USBPOW*%
X102770000Y-86750000D03*
X102770000Y-87250000D03*
X102770000Y-87750000D03*
X102770000Y-88250000D03*
X102770000Y-88750000D03*
X102770000Y-89250000D03*
X102770000Y-89750000D03*
X102770000Y-90250000D03*
X102770000Y-90750000D03*
X102770000Y-91250000D03*
X102770000Y-91750000D03*
X102770000Y-92250000D03*
X102770000Y-92750000D03*
X102770000Y-93250000D03*
X102770000Y-93750000D03*
X102770000Y-94250000D03*
X102770000Y-94750000D03*
X102770000Y-95250000D03*
X102770000Y-95750000D03*
X102770000Y-96250000D03*
X102770000Y-96750000D03*
X102770000Y-97250000D03*
X102770000Y-97750000D03*
X102770000Y-98250000D03*
D41*
X105350000Y-99940000D03*
X105350000Y-85060000D03*
%TD*%
D21*
%TO.C,R55*%
X100000000Y-97550000D03*
X101020000Y-97550000D03*
%TD*%
D51*
%TO.C,U6*%
X97750000Y-75265000D03*
X97350000Y-75265000D03*
X96950000Y-75265000D03*
X96550000Y-75265000D03*
X96150000Y-75265000D03*
X95750000Y-75265000D03*
X95350000Y-75265000D03*
X94950000Y-75265000D03*
X94550000Y-75265000D03*
X94150000Y-75265000D03*
X93750000Y-75265000D03*
X93350000Y-75265000D03*
X92950000Y-75265000D03*
X92550000Y-75265000D03*
D52*
X91720000Y-74445000D03*
X91720000Y-74045000D03*
X91720000Y-73645000D03*
X91720000Y-73245000D03*
X91720000Y-72845000D03*
X91720000Y-72445000D03*
X91720000Y-72045000D03*
X91720000Y-71645000D03*
X91720000Y-71245000D03*
X91720000Y-70845000D03*
X91720000Y-70445000D03*
X91720000Y-70045000D03*
X91720000Y-69645000D03*
X91720000Y-69245000D03*
D51*
X92550000Y-68425000D03*
X92950000Y-68425000D03*
X93350000Y-68425000D03*
X93750000Y-68425000D03*
X94150000Y-68425000D03*
X94550000Y-68425000D03*
X94950000Y-68425000D03*
X95350000Y-68425000D03*
X95750000Y-68425000D03*
X96150000Y-68425000D03*
X96550000Y-68425000D03*
X96950000Y-68425000D03*
X97350000Y-68425000D03*
X97750000Y-68425000D03*
D52*
X98570000Y-69245000D03*
X98570000Y-69645000D03*
X98570000Y-70045000D03*
X98570000Y-70445000D03*
X98570000Y-70845000D03*
X98570000Y-71245000D03*
X98570000Y-71645000D03*
X98570000Y-72045000D03*
X98570000Y-72445000D03*
X98570000Y-72845000D03*
X98570000Y-73245000D03*
X98570000Y-73645000D03*
X98570000Y-74045000D03*
X98570000Y-74445000D03*
D53*
X95150000Y-71845000D03*
%TD*%
D18*
%TO.C,C5*%
X97080000Y-49320000D03*
X97080000Y-48360000D03*
%TD*%
D11*
%TO.C,C59*%
X132850000Y-57500000D03*
X132850000Y-58460000D03*
%TD*%
D10*
%TO.C,C29*%
X186200000Y-68950000D03*
X185240000Y-68950000D03*
%TD*%
D18*
%TO.C,C36*%
X138200000Y-77960000D03*
X138200000Y-77000000D03*
%TD*%
D19*
%TO.C,C75*%
X170840000Y-67450000D03*
X171800000Y-67450000D03*
%TD*%
D40*
%TO.C,USB3.0*%
X128270000Y-86750000D03*
X128270000Y-87250000D03*
X128270000Y-87750000D03*
X128270000Y-88250000D03*
X128270000Y-88750000D03*
X128270000Y-89250000D03*
X128270000Y-89750000D03*
X128270000Y-90250000D03*
X128270000Y-90750000D03*
X128270000Y-91250000D03*
X128270000Y-91750000D03*
X128270000Y-92250000D03*
X128270000Y-92750000D03*
X128270000Y-93250000D03*
X128270000Y-93750000D03*
X128270000Y-94250000D03*
X128270000Y-94750000D03*
X128270000Y-95250000D03*
X128270000Y-95750000D03*
X128270000Y-96250000D03*
X128270000Y-96750000D03*
X128270000Y-97250000D03*
X128270000Y-97750000D03*
X128270000Y-98250000D03*
D41*
X130850000Y-99940000D03*
X130850000Y-85060000D03*
%TD*%
D10*
%TO.C,C32*%
X144300000Y-68950000D03*
X143340000Y-68950000D03*
%TD*%
D11*
%TO.C,C44*%
X139150000Y-62750000D03*
X139150000Y-63710000D03*
%TD*%
D15*
%TO.C,SW_D1*%
X62860000Y-49150000D03*
X66240000Y-49150000D03*
%TD*%
D71*
%TO.C,U13*%
X175020000Y-55740000D03*
X175020000Y-56390000D03*
X175020000Y-57040000D03*
X175020000Y-57690000D03*
X175020000Y-58350000D03*
X175020000Y-59000000D03*
X175020000Y-59650000D03*
X175020000Y-60300000D03*
X175020000Y-60950000D03*
X175020000Y-61600000D03*
X169280000Y-61600000D03*
X169280000Y-60950000D03*
X169280000Y-60300000D03*
X169280000Y-59650000D03*
X169280000Y-59000000D03*
X169280000Y-58350000D03*
X169280000Y-57690000D03*
X169280000Y-57040000D03*
X169280000Y-56390000D03*
X169280000Y-55740000D03*
%TD*%
D11*
%TO.C,C47*%
X139150000Y-77010000D03*
X139150000Y-77970000D03*
%TD*%
D18*
%TO.C,C68*%
X87700000Y-72810000D03*
X87700000Y-71850000D03*
%TD*%
D72*
%TO.C,U2*%
X106150000Y-54800000D03*
X106650000Y-54800000D03*
X107150000Y-54800000D03*
X107150000Y-56300000D03*
X106650000Y-56300000D03*
X106150000Y-56300000D03*
%TD*%
D66*
%TO.C,R50*%
X148200000Y-52950000D03*
X148200000Y-54600000D03*
%TD*%
D18*
%TO.C,C4*%
X95800000Y-49860000D03*
X95800000Y-48900000D03*
%TD*%
D73*
%TO.C,L2*%
X109100000Y-57650000D03*
X109100000Y-55150000D03*
%TD*%
D58*
%TO.C,C73*%
X117650000Y-104600000D03*
X119200000Y-104600000D03*
%TD*%
D19*
%TO.C,C114*%
X100100000Y-52090000D03*
X101060000Y-52090000D03*
%TD*%
%TO.C,C116*%
X166640000Y-56092500D03*
X167600000Y-56092500D03*
%TD*%
M02*
